<?xml version="1.0" encoding="utf-8"?>
<!-- Generator: Adobe Illustrator 26.1.0, SVG Export Plug-In . SVG Version: 6.00 Build 0)  -->
<svg version="1.1" id="Шар_1" xmlns="http://www.w3.org/2000/svg" xmlns:xlink="http://www.w3.org/1999/xlink" x="0px" y="0px"
	 viewBox="0 0 64 64" style="enable-background:new 0 0 64 64;" xml:space="preserve">
<style type="text/css">
	.st0{fill:url(#SVGID_1_);}
	.st1{fill:url(#SVGID_00000078759426638054083080000000715488104570446219_);}
</style>
<g>
	
		<linearGradient id="SVGID_1_" gradientUnits="userSpaceOnUse" x1="15.944" y1="32" x2="41.7693" y2="32" gradientTransform="matrix(1 0 0 -1 0 64)">
		<stop  offset="8.650140e-04" style="stop-color:#F1F5F9"/>
		<stop  offset="1" style="stop-color:#E3E8F1"/>
	</linearGradient>
	<path class="st0" d="M40.2,33.5H17.4c-0.8,0-1.5-0.7-1.5-1.5l0,0c0-0.8,0.7-1.5,1.5-1.5h22.8c0.8,0,1.5,0.7,1.5,1.5l0,0
		C41.7,32.8,41.1,33.5,40.2,33.5z"/>
	
		<linearGradient id="SVGID_00000085970231393489332550000014858798081178752695_" gradientUnits="userSpaceOnUse" x1="39.0439" y1="32" x2="48.0843" y2="32" gradientTransform="matrix(1 0 0 -1 0 64)">
		<stop  offset="1" style="stop-color:#F1F5F9"/>
		<stop  offset="1" style="stop-color:#9CA3AF"/>
	</linearGradient>
	<path style="fill:url(#SVGID_00000085970231393489332550000014858798081178752695_);" d="M39,29l9,2.8L39.3,35c0,0,1.1-1.3,1.1-3
		C40.4,30.2,39,29,39,29z"/>
</g>
</svg>
