<svg width="40" height="40" viewBox="0 0 40 40" fill="none" xmlns="http://www.w3.org/2000/svg">
<path fill-rule="evenodd" clip-rule="evenodd" d="M6 21C6 20.4477 6.44772 20 7 20H15C15.5523 20 16 20.4477 16 21C16 21.5523 15.5523 22 15 22H7C6.44772 22 6 21.5523 6 21Z" fill="#E2A412"/>
<path fill-rule="evenodd" clip-rule="evenodd" d="M33.1543 18.2242C33.6646 18.4355 33.9069 19.0205 33.6955 19.5307C33.3928 20.2616 32.8801 20.8863 32.2223 21.3259C31.5645 21.7654 30.7911 22 30 22L19 22C18.4477 22 18 21.5523 18 21C18 20.4477 18.4477 20 19 20L30 20C30.3956 20 30.7822 19.8827 31.1111 19.6629C31.44 19.4432 31.6964 19.1308 31.8478 18.7654C32.0591 18.2551 32.6441 18.0128 33.1543 18.2242Z" fill="#E2A412"/>
<path fill-rule="evenodd" clip-rule="evenodd" d="M26.7473 29.5661C27.2889 29.6738 27.8154 29.322 27.9231 28.7804C28.0775 28.0045 27.9983 27.2002 27.6955 26.4693C27.3928 25.7384 26.8801 25.1137 26.2223 24.6741C25.5645 24.2346 24.7911 24 24 24L13 24C12.4477 24 12 24.4477 12 25C12 25.5523 12.4477 26 13 26L24 26C24.3956 26 24.7822 26.1173 25.1111 26.3371C25.44 26.5568 25.6964 26.8692 25.8478 27.2346C25.9991 27.6001 26.0387 28.0022 25.9616 28.3902C25.8538 28.9319 26.2056 29.4583 26.7473 29.5661Z" fill="#E2A412"/>
<path fill-rule="evenodd" clip-rule="evenodd" d="M21.4142 11.1716C21.8047 10.781 22.4379 10.781 22.8284 11.1716C23.3878 11.731 23.7688 12.4437 23.9231 13.2196C24.0775 13.9956 23.9983 14.7998 23.6955 15.5307C23.3928 16.2616 22.8801 16.8863 22.2223 17.3259C21.5645 17.7654 20.7911 18 20 18L9 18C8.44772 18 8 17.5523 8 17C8 16.4477 8.44772 16 9 16L20 16C20.3956 16 20.7822 15.8827 21.1111 15.6629C21.44 15.4432 21.6964 15.1308 21.8478 14.7654C21.9991 14.3999 22.0387 13.9978 21.9616 13.6098C21.8844 13.2219 21.6939 12.8655 21.4142 12.5858C21.0237 12.1953 21.0237 11.5621 21.4142 11.1716Z" fill="#E2A412"/>
<path d="M34 15C34 15.5523 33.5523 16 33 16C32.4477 16 32 15.5523 32 15C32 14.4477 32.4477 14 33 14C33.5523 14 34 14.4477 34 15Z" fill="#F9BE1A"/>
<path d="M20 9C20 9.55228 19.5523 10 19 10C18.4477 10 18 9.55228 18 9C18 8.44772 18.4477 8 19 8C19.5523 8 20 8.44772 20 9Z" fill="#F9BE1A"/>
<path d="M24 31C24 31.5523 23.5523 32 23 32C22.4477 32 22 31.5523 22 31C22 30.4477 22.4477 30 23 30C23.5523 30 24 30.4477 24 31Z" fill="#F9BE1A"/>
</svg>
