<?xml version="1.0" encoding="utf-8"?>
<!-- Generator: Adobe Illustrator 26.1.0, SVG Export Plug-In . SVG Version: 6.00 Build 0)  -->
<svg version="1.1" id="Шар_1" xmlns="http://www.w3.org/2000/svg" xmlns:xlink="http://www.w3.org/1999/xlink" x="0px" y="0px"
	 viewBox="0 0 40 40" style="enable-background:new 0 0 40 40;" xml:space="preserve">
<style type="text/css">
	.st0{fill-rule:evenodd;clip-rule:evenodd;fill:#BFAE84;}
	.st1{fill:#D6C28B;}
</style>
<path class="st0" d="M6,21c0-0.6,0.4-1,1-1h8c0.6,0,1,0.4,1,1s-0.4,1-1,1H7C6.4,22,6,21.6,6,21z"/>
<path class="st0" d="M33.2,18.2c0.5,0.2,0.8,0.8,0.5,1.3c-0.3,0.7-0.8,1.4-1.5,1.8C31.6,21.8,30.8,22,30,22H19c-0.6,0-1-0.4-1-1
	s0.4-1,1-1h11c0.4,0,0.8-0.1,1.1-0.3c0.3-0.2,0.6-0.5,0.7-0.9C32.1,18.3,32.6,18,33.2,18.2z"/>
<path class="st0" d="M26.7,29.6c0.5,0.1,1.1-0.2,1.2-0.8c0.2-0.8,0.1-1.6-0.2-2.3c-0.3-0.7-0.8-1.4-1.5-1.8C25.6,24.2,24.8,24,24,24
	H13c-0.6,0-1,0.4-1,1s0.4,1,1,1h11c0.4,0,0.8,0.1,1.1,0.3c0.3,0.2,0.6,0.5,0.7,0.9C26,27.6,26,28,26,28.4
	C25.9,28.9,26.2,29.5,26.7,29.6z"/>
<path class="st0" d="M21.4,11.2c0.4-0.4,1-0.4,1.4,0c0.6,0.6,0.9,1.3,1.1,2c0.2,0.8,0.1,1.6-0.2,2.3c-0.3,0.7-0.8,1.4-1.5,1.8
	C21.6,17.8,20.8,18,20,18H9c-0.6,0-1-0.4-1-1s0.4-1,1-1h11c0.4,0,0.8-0.1,1.1-0.3c0.3-0.2,0.6-0.5,0.7-0.9C22,14.4,22,14,22,13.6
	c-0.1-0.4-0.3-0.7-0.5-1C21,12.2,21,11.6,21.4,11.2z"/>
<path class="st1" d="M34,15c0,0.6-0.4,1-1,1s-1-0.4-1-1s0.4-1,1-1S34,14.4,34,15z"/>
<path class="st1" d="M20,9c0,0.6-0.4,1-1,1s-1-0.4-1-1s0.4-1,1-1S20,8.4,20,9z"/>
<path class="st1" d="M24,31c0,0.6-0.4,1-1,1s-1-0.4-1-1s0.4-1,1-1S24,30.4,24,31z"/>
</svg>
