<svg width="40" height="40" viewBox="0 0 40 40" fill="none" xmlns="http://www.w3.org/2000/svg">
<path d="M27.9361 23.3511C28.13 22.834 27.868 22.2576 27.3509 22.0637C26.8338 21.8697 26.2574 22.1318 26.0635 22.6489L23.0635 30.6489C22.8695 31.166 23.1315 31.7424 23.6487 31.9363C24.1658 32.1302 24.7422 31.8682 24.9361 31.3511L27.9361 23.3511Z" fill="#7295F6"/>
<path d="M13.3509 22.0637C13.868 22.2576 14.13 22.834 13.9361 23.3511L10.9361 31.3511C10.7422 31.8682 10.1658 32.1302 9.64866 31.9363C9.13154 31.7424 8.86953 31.166 9.06345 30.6489L12.0635 22.6489C12.2574 22.1318 12.8338 21.8697 13.3509 22.0637Z" fill="#7295F6"/>
<path d="M20.3509 22.0637C20.868 22.2576 21.13 22.834 20.9361 23.3511L17.9361 31.3511C17.7422 31.8682 17.1658 32.1302 16.6487 31.9363C16.1315 31.7424 15.8695 31.166 16.0635 30.6489L19.0635 22.6489C19.2574 22.1318 19.8338 21.8697 20.3509 22.0637Z" fill="#7295F6"/>
<path d="M9.25607 14.3125C9.08936 13.7372 9 13.1291 9 12.5C9 8.91015 11.9101 6 15.5 6C18.4579 6 20.9543 7.97568 21.7416 10.6794C22.4669 9.66282 23.656 9 25 9C27.2091 9 29 10.7909 29 13C29 13.3453 28.9562 13.6804 28.874 14H29C31.7614 14 34 16.2386 34 19C34 21.7614 31.7614 24 29 24H11C8.23858 24 6 21.7614 6 19C6 16.8519 7.35455 15.0203 9.25607 14.3125Z" fill="#DDDDDD"/>
</svg>
