<svg width="40" height="40" viewBox="0 0 40 40" fill="none" xmlns="http://www.w3.org/2000/svg">
<path d="M24 7C24 6.44772 23.5523 6 23 6C22.4477 6 22 6.44772 22 7V8C22 8.55228 22.4477 9 23 9C23.5523 9 24 8.55228 24 8V7Z" fill="#FFCC33"/>
<path d="M16.6736 20H29.3265C29.7584 19.0908 30.0001 18.0737 30.0001 17.0001C30.0001 13.1341 26.866 10.0001 23 10.0001C19.134 10.0001 16 13.1341 16 17.0001C16 18.0737 16.2417 19.0908 16.6736 20Z" fill="#FFCC33"/>
<path d="M34 17C34 17.5523 33.5523 18 33 18H32C31.4477 18 31 17.5523 31 17C31 16.4477 31.4477 16 32 16H33C33.5523 16 34 16.4477 34 17Z" fill="#FFCC33"/>
<path d="M14 18C14.5523 18 15 17.5523 15 17C15 16.4477 14.5523 16 14 16H13C12.4477 16 12 16.4477 12 17C12 17.5523 12.4477 18 13 18H14Z" fill="#FFCC33"/>
<path d="M28.4998 7.47375C28.9781 7.7499 29.142 8.36149 28.8658 8.83978L28.3658 9.70581C28.0897 10.1841 27.4781 10.348 26.9998 10.0718C26.5215 9.79569 26.3576 9.1841 26.6338 8.70581L27.1338 7.83978C27.4099 7.36149 28.0215 7.19761 28.4998 7.47375Z" fill="#FFCC33"/>
<path d="M14.7058 13.3661C15.184 13.6422 15.7956 13.4784 16.0718 13.0001C16.3479 12.5218 16.184 11.9102 15.7058 11.634L14.8397 11.134C14.3614 10.8579 13.7498 11.0218 13.4737 11.5001C13.1976 11.9784 13.3614 12.5899 13.8397 12.8661L14.7058 13.3661Z" fill="#FFCC33"/>
<path d="M32.5264 11.5001C32.8025 11.9784 32.6386 12.5899 32.1603 12.8661L31.2943 13.3661C30.816 13.6422 30.2044 13.4784 29.9283 13.0001C29.6521 12.5218 29.816 11.9102 30.2943 11.634L31.1603 11.134C31.6386 10.8579 32.2502 11.0218 32.5264 11.5001Z" fill="#FFCC33"/>
<path d="M17.6342 9.70581C17.9103 10.1841 18.5219 10.348 19.0002 10.0718C19.4785 9.7957 19.6424 9.18411 19.3662 8.70581L18.8662 7.83979C18.5901 7.3615 17.9785 7.19762 17.5002 7.47376C17.0219 7.7499 16.858 8.36149 17.1342 8.83979L17.6342 9.70581Z" fill="#FFCC33"/>
<path fill-rule="evenodd" clip-rule="evenodd" d="M9 21C9 20.4477 9.44772 20 10 20H32C32.5523 20 33 20.4477 33 21V21C33 21.5523 32.5523 22 32 22H28C27.4477 22 27 22.4477 27 23V23C27 23.5523 27.4477 24 28 24H34C34.5523 24 35 24.4477 35 25V25C35 25.5523 34.5523 26 34 26H26C25.4477 26 25 26.4477 25 27V27C25 27.5523 25.4477 28 26 28H30C30.5523 28 31 28.4477 31 29V29C31 29.5523 30.5523 30 30 30H12C11.4477 30 11 29.5523 11 29V29C11 28.4477 11.4477 28 12 28H14C14.5523 28 15 27.5523 15 27V27C15 26.4477 14.5523 26 14 26H6C5.44772 26 5 25.5523 5 25V25C5 24.4477 5.44772 24 6 24H12C12.5523 24 13 23.5523 13 23V23C13 22.4477 12.5523 22 12 22H10C9.44772 22 9 21.5523 9 21V21ZM27 33C27 32.4477 26.5523 32 26 32H21C20.4477 32 20 32.4477 20 33V33C20 33.5523 20.4477 34 21 34H26C26.5523 34 27 33.5523 27 33V33ZM16 32C16.5523 32 17 32.4477 17 33V33C17 33.5523 16.5523 34 16 34H14C13.4477 34 13 33.5523 13 33V33C13 32.4477 13.4477 32 14 32H16Z" fill="#D0D0D0"/>
</svg>
