<svg width="40" height="40" viewBox="0 0 40 40" fill="none" xmlns="http://www.w3.org/2000/svg">
<path fill-rule="evenodd" clip-rule="evenodd" d="M12.3509 22.0637C12.868 22.2576 13.13 22.834 12.9361 23.3511L9.93611 31.3511C9.74219 31.8682 9.16578 32.1302 8.64866 31.9363C8.13154 31.7424 7.86953 31.166 8.06345 30.6489L11.0635 22.6489C11.2574 22.1318 11.8338 21.8698 12.3509 22.0637Z" fill="#7295F6"/>
<path fill-rule="evenodd" clip-rule="evenodd" d="M16.3509 22.0637C16.868 22.2576 17.13 22.834 16.9361 23.3511L13.9361 31.3511C13.7422 31.8682 13.1658 32.1302 12.6487 31.9363C12.1315 31.7424 11.8695 31.166 12.0635 30.6489L15.0635 22.6489C15.2574 22.1318 15.8338 21.8698 16.3509 22.0637Z" fill="#7295F6"/>
<path fill-rule="evenodd" clip-rule="evenodd" d="M20.3509 22.0637C20.868 22.2576 21.13 22.834 20.9361 23.3511L17.9361 31.3511C17.7422 31.8682 17.1658 32.1302 16.6487 31.9363C16.1315 31.7424 15.8695 31.166 16.0635 30.6489L19.0635 22.6489C19.2574 22.1318 19.8338 21.8698 20.3509 22.0637Z" fill="#7295F6"/>
<path d="M9.25607 14.3125C9.08936 13.7372 9 13.1291 9 12.5C9 8.91015 11.9101 6 15.5 6C18.4579 6 20.9543 7.97568 21.7416 10.6794C22.4669 9.66282 23.656 9 25 9C27.2091 9 29 10.7909 29 13C29 13.3453 28.9562 13.6804 28.874 14H29C31.7614 14 34 16.2386 34 19C34 21.7614 31.7614 24 29 24H11C8.23858 24 6 21.7614 6 19C6 16.8519 7.35455 15.0203 9.25607 14.3125Z" fill="#DDDDDD"/>
<path fill-rule="evenodd" clip-rule="evenodd" d="M28.0001 26.9999L29.0719 21.6407C29.2072 20.9644 28.6899 20.3333 28.0001 20.3333C27.3103 20.3333 26.793 20.9644 26.9282 21.6407L28.0001 26.9999L28 26.9999L23.8947 23.3921C23.3766 22.9367 22.5714 23.0692 22.2265 23.6666C21.8816 24.264 22.1695 25.0275 22.8229 25.2486L28 26.9999L22.8229 28.7513C22.1695 28.9723 21.8816 29.7359 22.2265 30.3333C22.5714 30.9306 23.3766 31.0631 23.8947 30.6078L28 26.9999L28.0001 27L26.9282 32.3592C26.793 33.0356 27.3103 33.6666 28.0001 33.6666C28.6899 33.6666 29.2072 33.0356 29.0719 32.3592L28.0001 27L32.1053 30.6078C32.6235 31.0631 33.4286 30.9306 33.7735 30.3333C34.1184 29.7359 33.8306 28.9723 33.1772 28.7513L28.0001 27L28.0001 26.9999L33.1772 25.2486C33.8306 25.0275 34.1184 24.264 33.7735 23.6666C33.4286 23.0692 32.6235 22.9367 32.1053 23.3921L28.0001 26.9999ZM28.0001 27L28.0001 26.9999L28 26.9999L28.0001 27Z" fill="#7295F6"/>
<path d="M29.0719 21.6407L28.7778 21.5819L29.0719 21.6407ZM28.0001 26.9999L27.7059 26.941L27.532 27.8106L28.1982 27.2252L28.0001 26.9999ZM26.9282 21.6407L26.6341 21.6996V21.6996L26.9282 21.6407ZM28.0001 26.9999L28.1979 27.2254L28.3283 27.1111L28.2943 26.9411L28.0001 26.9999ZM23.8947 23.3921L24.0928 23.1667L23.8947 23.3921ZM22.2265 23.6666L21.9667 23.5166H21.9667L22.2265 23.6666ZM22.8229 25.2486L22.919 24.9644H22.919L22.8229 25.2486ZM22.8229 28.7513L22.7267 28.4671L22.8229 28.7513ZM22.2265 30.3333L21.9667 30.4833L21.9667 30.4833L22.2265 30.3333ZM23.8947 30.6078L23.6967 30.3824L23.8947 30.6078ZM28.0001 27L28.2943 27.0588L28.3282 26.8893L28.1985 26.775L28.0001 27ZM29.0719 32.3592L28.7778 32.418L29.0719 32.3592ZM28.0001 27L28.1981 26.7746L27.532 26.1892L27.7059 27.0588L28.0001 27ZM32.1053 30.6078L31.9073 30.8331L32.1053 30.6078ZM33.7735 30.3333L33.5137 30.1833V30.1833L33.7735 30.3333ZM33.1772 28.7513L33.2733 28.4671H33.2733L33.1772 28.7513ZM28.0001 27L27.8731 27.2718L27.8882 27.2788L27.904 27.2841L28.0001 27ZM28.0001 26.9999L27.904 26.7157L27.7405 26.771L27.7061 26.9401L28.0001 26.9999ZM33.1772 25.2486L33.081 24.9644L33.1772 25.2486ZM33.7735 23.6666L34.0333 23.5166L34.0333 23.5166L33.7735 23.6666ZM32.1053 23.3921L31.9073 23.1667L32.1053 23.3921ZM28.0001 26.9999L28.294 26.94L28.2262 26.6074L27.9045 26.7156L28.0001 26.9999ZM28.7778 21.5819L27.7059 26.941L28.2943 27.0587L29.3661 21.6996L28.7778 21.5819ZM28.0001 20.6333C28.5006 20.6333 28.8759 21.0912 28.7778 21.5819L29.3661 21.6996C29.5385 20.8375 28.8792 20.0333 28.0001 20.0333V20.6333ZM27.2224 21.5819C27.1243 21.0912 27.4996 20.6333 28.0001 20.6333V20.0333C27.121 20.0333 26.4617 20.8375 26.6341 21.6996L27.2224 21.5819ZM28.2943 26.9411L27.2224 21.5819L26.6341 21.6996L27.7059 27.0587L28.2943 26.9411ZM27.8022 26.7744L27.8022 26.7744L28.1979 27.2254L28.1979 27.2254L27.8022 26.7744ZM28.1981 26.7746L24.0928 23.1667L23.6967 23.6174L27.802 27.2253L28.1981 26.7746ZM24.0928 23.1667C23.4324 22.5864 22.4063 22.7553 21.9667 23.5166L22.4863 23.8166C22.7366 23.3832 23.3208 23.287 23.6967 23.6174L24.0928 23.1667ZM21.9667 23.5166C21.5272 24.2779 21.894 25.251 22.7267 25.5327L22.919 24.9644C22.4449 24.804 22.2361 24.25 22.4863 23.8166L21.9667 23.5166ZM22.7267 25.5327L27.9039 27.2841L28.0962 26.7158L22.919 24.9644L22.7267 25.5327ZM27.9039 26.7158L22.7267 28.4671L22.919 29.0355L28.0962 27.2841L27.9039 26.7158ZM22.7267 28.4671C21.894 28.7488 21.5272 29.7219 21.9667 30.4833L22.4863 30.1833C22.2361 29.7498 22.4449 29.1959 22.919 29.0355L22.7267 28.4671ZM21.9667 30.4833C22.4063 31.2446 23.4324 31.4135 24.0928 30.8331L23.6967 30.3824C23.3208 30.7128 22.7366 30.6167 22.4863 30.1833L21.9667 30.4833ZM24.0928 30.8331L28.1981 27.2253L27.802 26.7746L23.6967 30.3824L24.0928 30.8331ZM27.8016 27.2249L27.8017 27.225L28.1985 26.775L28.1985 26.7749L27.8016 27.2249ZM27.2224 32.418L28.2943 27.0588L27.7059 26.9411L26.6341 32.3004L27.2224 32.418ZM28.0001 33.3666C27.4996 33.3666 27.1243 32.9088 27.2224 32.418L26.6341 32.3004C26.4617 33.1624 27.121 33.9666 28.0001 33.9666V33.3666ZM28.7778 32.418C28.8759 32.9088 28.5006 33.3666 28.0001 33.3666V33.9666C28.8792 33.9666 29.5385 33.1624 29.3661 32.3004L28.7778 32.418ZM27.7059 27.0588L28.7778 32.418L29.3661 32.3004L28.2943 26.9412L27.7059 27.0588ZM27.8021 27.2253L31.9073 30.8331L32.3034 30.3824L28.1981 26.7746L27.8021 27.2253ZM31.9073 30.8331C32.5676 31.4135 33.5938 31.2446 34.0333 30.4833L33.5137 30.1833C33.2635 30.6167 32.6793 30.7128 32.3034 30.3824L31.9073 30.8331ZM34.0333 30.4833C34.4729 29.7219 34.106 28.7488 33.2733 28.4671L33.081 29.0355C33.5551 29.1959 33.764 29.7498 33.5137 30.1833L34.0333 30.4833ZM33.2733 28.4671L28.0962 26.7158L27.904 27.2841L33.081 29.0355L33.2733 28.4671ZM27.7061 26.9401L27.7061 26.9402L28.2941 27.0598L28.2941 27.0597L27.7061 26.9401ZM28.0962 27.2841L33.2733 25.5327L33.081 24.9644L27.904 26.7157L28.0962 27.2841ZM33.2733 25.5327C34.106 25.251 34.4729 24.2779 34.0333 23.5166L33.5137 23.8166C33.764 24.25 33.5551 24.804 33.081 24.9644L33.2733 25.5327ZM34.0333 23.5166C33.5938 22.7553 32.5676 22.5864 31.9073 23.1667L32.3034 23.6174C32.6793 23.287 33.2635 23.3832 33.5137 23.8166L34.0333 23.5166ZM31.9073 23.1667L27.8021 26.7745L28.1982 27.2252L32.3034 23.6174L31.9073 23.1667ZM28.294 26.94L28.294 26.94L27.7061 27.0598L27.7061 27.0599L28.294 26.94ZM28.0956 27.2843L28.0957 27.2843L27.9045 26.7156L27.9044 26.7156L28.0956 27.2843ZM28.1271 26.7282L28.127 26.7281L27.8731 27.2717L27.8731 27.2718L28.1271 26.7282Z" fill="#7295F6"/>
</svg>
