<svg width="40" height="40" viewBox="0 0 40 40" fill="none" xmlns="http://www.w3.org/2000/svg">
<path fill-rule="evenodd" clip-rule="evenodd" d="M9.25607 14.3125C9.08936 13.7372 9 13.1291 9 12.5C9 8.91015 11.9101 6 15.5 6C18.4579 6 20.9543 7.97568 21.7416 10.6794C22.4669 9.66282 23.656 9 25 9C27.2091 9 29 10.7909 29 13C29 13.3453 28.9562 13.6804 28.874 14H29C31.7614 14 34 16.2386 34 19C34 21.7614 31.7614 24 29 24H11C8.23858 24 6 21.7614 6 19C6 16.8519 7.35455 15.0203 9.25607 14.3125Z" fill="#DDDDDD"/>
<path fill-rule="evenodd" clip-rule="evenodd" d="M27.0001 26.9999L28.0719 21.6407C28.2072 20.9643 27.6899 20.3333 27.0001 20.3333C26.3103 20.3333 25.793 20.9643 25.9282 21.6407L27.0001 26.9999L22.8947 23.3921C22.3766 22.9367 21.5714 23.0692 21.2265 23.6666C20.8816 24.264 21.1695 25.0275 21.8229 25.2486L27.0001 26.9999L21.8229 28.7513C21.1695 28.9723 20.8816 29.7359 21.2265 30.3333C21.5714 30.9306 22.3766 31.0631 22.8947 30.6078L27.0001 26.9999L25.9282 32.3592C25.793 33.0356 26.3103 33.6666 27.0001 33.6666C27.6899 33.6666 28.2072 33.0356 28.0719 32.3592L27.0001 26.9999L31.1053 30.6078C31.6235 31.0631 32.4286 30.9306 32.7735 30.3333C33.1184 29.7359 32.8306 28.9723 32.1772 28.7513L27.0001 26.9999L32.1772 25.2486C32.8306 25.0275 33.1184 24.264 32.7735 23.6666C32.4286 23.0692 31.6235 22.9367 31.1053 23.3921L27.0001 26.9999Z" fill="#7295F6"/>
<path fill-rule="evenodd" clip-rule="evenodd" d="M13.0167 30.0164L13.6419 26.8904C13.7209 26.4958 13.4191 26.1277 13.0167 26.1277C12.6143 26.1277 12.3125 26.4958 12.3915 26.8904L13.0167 30.0164L10.6219 27.912C10.3197 27.6464 9.84998 27.7237 9.64879 28.0722C9.44761 28.4206 9.61551 28.866 9.99667 28.995L13.0167 30.0164L9.99657 31.0382C9.61542 31.1672 9.44751 31.6126 9.6487 31.961C9.84988 32.3095 10.3196 32.3868 10.6218 32.1212L13.0167 30.0164L12.3915 33.1428C12.3125 33.5374 12.6143 33.9055 13.0167 33.9055C13.4191 33.9055 13.7209 33.5374 13.6419 33.1428L13.0167 30.0164L15.4114 32.1212C15.7137 32.3868 16.1833 32.3095 16.3845 31.961C16.5857 31.6126 16.4178 31.1672 16.0367 31.0382L13.0167 30.0164L16.0366 28.995C16.4177 28.866 16.5856 28.4206 16.3844 28.0722C16.1833 27.7237 15.7136 27.6464 15.4113 27.912L13.0167 30.0164Z" fill="#7295F6"/>
<path d="M27.0001 26.9999L28.0719 21.6407C28.2072 20.9643 27.6899 20.3333 27.0001 20.3333C26.3103 20.3333 25.793 20.9643 25.9282 21.6407L27.0001 26.9999ZM27.0001 26.9999L22.8947 23.3921C22.3766 22.9367 21.5714 23.0692 21.2265 23.6666C20.8816 24.264 21.1695 25.0275 21.8229 25.2486L27.0001 26.9999ZM27.0001 26.9999L21.8229 28.7513C21.1695 28.9723 20.8816 29.7359 21.2265 30.3333C21.5714 30.9306 22.3766 31.0631 22.8947 30.6078L27.0001 26.9999ZM27.0001 26.9999L25.9282 32.3592C25.793 33.0356 26.3103 33.6666 27.0001 33.6666C27.6899 33.6666 28.2072 33.0356 28.0719 32.3592L27.0001 26.9999ZM27.0001 26.9999L31.1053 30.6078C31.6235 31.0631 32.4286 30.9306 32.7735 30.3333C33.1184 29.7359 32.8306 28.9723 32.1772 28.7513L27.0001 26.9999ZM27.0001 26.9999L32.1772 25.2486C32.8306 25.0275 33.1184 24.264 32.7735 23.6666C32.4286 23.0692 31.6235 22.9367 31.1053 23.3921L27.0001 26.9999ZM13.0167 30.0164L13.6419 26.8904C13.7209 26.4958 13.4191 26.1277 13.0167 26.1277C12.6143 26.1277 12.3125 26.4958 12.3915 26.8904L13.0167 30.0164ZM13.0167 30.0164L10.6219 27.912C10.3197 27.6464 9.84998 27.7237 9.64879 28.0722C9.44761 28.4206 9.61551 28.866 9.99667 28.995L13.0167 30.0164ZM13.0167 30.0164L9.99657 31.0382C9.61542 31.1672 9.44751 31.6126 9.6487 31.961C9.84988 32.3095 10.3196 32.3868 10.6218 32.1212L13.0167 30.0164ZM13.0167 30.0164L12.3915 33.1428C12.3125 33.5374 12.6143 33.9055 13.0167 33.9055C13.4191 33.9055 13.7209 33.5374 13.6419 33.1428L13.0167 30.0164ZM13.0167 30.0164L15.4114 32.1212C15.7137 32.3868 16.1833 32.3095 16.3845 31.961C16.5857 31.6126 16.4178 31.1672 16.0367 31.0382L13.0167 30.0164ZM13.0167 30.0164L16.0366 28.995C16.4177 28.866 16.5856 28.4206 16.3844 28.0722C16.1833 27.7237 15.7136 27.6464 15.4113 27.912L13.0167 30.0164Z" stroke="#7295F6" stroke-width="0.349999"/>
</svg>
