<svg width="40" height="40" viewBox="0 0 40 40" fill="none" xmlns="http://www.w3.org/2000/svg">
<path d="M22.2357 25.1425C23.2377 24.5413 24.0002 23.5908 24.0002 22C24.0002 20.8786 23.7757 20.1574 23.4919 19.6952C23.2157 19.2456 22.8431 18.9741 22.406 18.8138C21.4687 18.4702 20.2311 18.6438 19.3164 18.9486C18.7925 19.1233 18.2262 18.8401 18.0515 18.3162C17.8769 17.7922 18.16 17.2259 18.684 17.0513C19.7694 16.6895 21.5317 16.3631 23.0945 16.9361C23.9073 17.2341 24.6597 17.7751 25.1961 18.6485C25.7247 19.5092 26.0002 20.6213 26.0002 22C26.0002 24.4091 24.7628 25.9586 23.2647 26.8574C21.8189 27.7249 20.1277 28 19.0002 28C17.9477 27.9999 15.2505 27.8739 12.7835 26.5718C11.5349 25.9129 10.3271 24.943 9.43497 23.5245C8.54071 22.1027 8.00022 20.2879 8.00022 17.9999C8.00022 15.4326 8.71385 13.3188 10.0683 11.6953C11.4158 10.08 13.3249 9.03701 15.5668 8.46816C20.0171 7.33898 25.9783 8.02299 32.305 10.0475C32.831 10.2158 33.121 10.7787 32.9526 11.3047C32.7843 11.8307 32.2215 12.1207 31.6954 11.9524C25.5221 9.97691 19.9833 9.41092 16.0587 10.4067C14.1131 10.9004 12.6158 11.7636 11.604 12.9765C10.5991 14.1811 10.0002 15.8173 10.0002 17.9999C10.0002 19.962 10.4597 21.3972 11.128 22.4597C11.7983 23.5256 12.7155 24.2745 13.717 24.8031C15.7499 25.876 18.0527 25.9999 19.0002 26C19.8727 26 21.1815 25.775 22.2357 25.1425Z" fill="#7295F6"/>
<path d="M16.7648 14.8574C15.7628 15.4586 15.0003 16.4091 15.0003 18C15.0003 19.1213 15.2247 19.8425 15.5086 20.3047C15.7848 20.7543 16.1574 21.0258 16.5945 21.1861C17.5318 21.5297 18.7694 21.3561 19.684 21.0513C20.208 20.8766 20.7743 21.1598 20.949 21.6837C21.1236 22.2077 20.8404 22.774 20.3165 22.9486C19.2311 23.3104 17.4688 23.6368 15.906 23.0638C15.0932 22.7658 14.3408 22.2248 13.8044 21.3514C13.2758 20.4907 13.0003 19.3786 13.0003 18C13.0003 15.5908 14.2377 14.0413 15.7358 13.1425C17.1816 12.275 18.8728 11.9999 20.0003 12C21.0528 12 23.7499 12.126 26.217 13.4281C27.4656 14.087 28.6734 15.0569 29.5655 16.4754C30.4598 17.8972 31.0003 19.712 31.0003 22C31.0003 24.5673 30.2866 26.6811 28.9322 28.3046C27.5846 29.9199 25.6756 30.9629 23.4337 31.5317C18.9834 32.6609 13.0222 31.9769 6.69549 29.9524C6.16948 29.7841 5.87952 29.2212 6.04784 28.6952C6.21617 28.1692 6.77904 27.8792 7.30504 28.0475C13.4784 30.023 19.0172 30.589 22.9418 29.5932C24.8874 29.0995 26.3846 28.2363 27.3965 27.0234C28.4014 25.8188 29.0003 24.1826 29.0003 22C29.0003 20.0379 28.5408 18.6027 27.8725 17.5402C27.2022 16.4743 26.2849 15.7254 25.2835 15.1968C23.2506 14.1239 20.9478 14 20.0003 14C19.1277 13.9999 17.8189 14.2249 16.7648 14.8574Z" fill="#7295F6"/>
<path d="M9.00049 9.99995C9.55277 9.99995 10.0005 9.55224 10.0005 8.99995C10.0005 8.44767 9.55277 7.99995 9.00049 7.99995C8.4482 7.99995 8.00049 8.44767 8.00049 8.99995C8.00049 9.55224 8.4482 9.99995 9.00049 9.99995Z" fill="#7295F6"/>
<path d="M32.0005 14C32.0005 14.5522 31.5528 15 31.0005 15C30.4482 15 30.0005 14.5522 30.0005 14C30.0005 13.4477 30.4482 13 31.0005 13C31.5528 13 32.0005 13.4477 32.0005 14Z" fill="#7295F6"/>
<path d="M8.00049 27C8.55277 27 9.00049 26.5522 9.00049 26C9.00049 25.4477 8.55277 25 8.00049 25C7.4482 25 7.00049 25.4477 7.00049 26C7.00049 26.5522 7.4482 27 8.00049 27Z" fill="#7295F6"/>
</svg>
