<?xml version="1.0" encoding="utf-8"?>
<!-- Generator: Adobe Illustrator 26.1.0, SVG Export Plug-In . SVG Version: 6.00 Build 0)  -->
<svg version="1.1" id="Шар_1" xmlns="http://www.w3.org/2000/svg" xmlns:xlink="http://www.w3.org/1999/xlink" x="0px" y="0px"
	 viewBox="0 0 40 40" style="enable-background:new 0 0 40 40;" xml:space="preserve">
<style type="text/css">
	.st0{fill:#F9BE1A;}
	.st1{fill:#F0F0F0;}
</style>
<path class="st0" d="M34,15c0-0.2-0.2-0.2-0.3-0.1c-1,1.4-2.6,2.3-4.4,2.3c-3,0-5.5-2.4-5.5-5.5c0-1.8,0.9-3.4,2.3-4.4
	C26.2,7.2,26.2,7,26,7c-4.4,0-8,3.6-8,8s3.6,8,8,8S34,19.4,34,15z"/>
<path class="st1" d="M9.3,22.3C9.1,21.7,9,21.1,9,20.5c0-3.6,2.9-6.5,6.5-6.5c3,0,5.5,2,6.2,4.7c0.7-1,1.9-1.7,3.3-1.7
	c2.2,0,4,1.8,4,4c0,0.3,0,0.7-0.1,1H29c2.8,0,5,2.2,5,5s-2.2,5-5,5H11c-2.8,0-5-2.2-5-5C6,24.9,7.4,23,9.3,22.3z"/>
</svg>
