<svg width="40" height="40" viewBox="0 0 40 40" fill="none" xmlns="http://www.w3.org/2000/svg">
<path d="M30.1314 9.86863L29 6L27.8686 9.86863L24 11L27.8686 12.1314L29 16L30.1314 12.1314L34 11L30.1314 9.86863Z" fill="#F9BE1A"/>
<path d="M27.586 22.8841C27.7125 22.7087 28 22.7837 28 23C28 29.0751 23.0751 34 17 34C10.9249 34 6 29.0751 6 23C6 16.9248 10.9249 12 17 12C17.2163 12 17.2914 12.2875 17.1159 12.4141C15.2285 13.7761 14 15.9946 14 18.5C14 22.6421 17.3579 26 21.5 26C24.0054 26 26.2239 24.7715 27.586 22.8841Z" fill="#F9BE1A"/>
</svg>
