<svg width="40" height="40" viewBox="0 0 40 40" fill="none" xmlns="http://www.w3.org/2000/svg">
<path d="M21 7C21 6.44772 20.5523 6 20 6C19.4477 6 19 6.44772 19 7V9C19 9.55228 19.4477 10 20 10C20.5523 10 21 9.55228 21 9V7Z" fill="#F9BE1A"/>
<path d="M26.9998 7.87561C27.4781 8.15175 27.642 8.76334 27.3658 9.24164L26.3658 10.9737C26.0897 11.452 25.4781 11.6159 24.9998 11.3397C24.5215 11.0636 24.3576 10.452 24.6338 9.97369L25.6338 8.24164C25.9099 7.76334 26.5215 7.59947 26.9998 7.87561Z" fill="#F9BE1A"/>
<path d="M32.124 12.9999C32.4002 13.4782 32.2363 14.0898 31.758 14.366L30.0259 15.366C29.5477 15.6421 28.9361 15.4782 28.6599 14.9999C28.3838 14.5216 28.5477 13.9101 29.0259 13.6339L30.758 12.6339C31.2363 12.3578 31.8479 12.5216 32.124 12.9999Z" fill="#F9BE1A"/>
<path d="M15.3658 30.0263C15.642 29.548 15.4781 28.9364 14.9998 28.6603C14.5215 28.3841 13.9099 28.548 13.6338 29.0263L12.6338 30.7584C12.3576 31.2366 12.5215 31.8482 12.9998 32.1244C13.4781 32.4005 14.0897 32.2366 14.3658 31.7584L15.3658 30.0263Z" fill="#F9BE1A"/>
<path d="M32.124 27C31.8479 27.4783 31.2363 27.6422 30.758 27.366L29.0259 26.366C28.5477 26.0899 28.3838 25.4783 28.6599 25C28.9361 24.5217 29.5477 24.3578 30.0259 24.634L31.758 25.634C32.2363 25.9101 32.4002 26.5217 32.124 27Z" fill="#F9BE1A"/>
<path d="M9.97333 15.366C10.4516 15.6422 11.0632 15.4783 11.3394 15C11.6155 14.5217 11.4516 13.9101 10.9733 13.634L9.24128 12.634C8.76299 12.3578 8.1514 12.5217 7.87525 13C7.59911 13.4783 7.76299 14.0899 8.24128 14.366L9.97333 15.366Z" fill="#F9BE1A"/>
<path d="M11.3394 24.9999C11.6155 25.4782 11.4516 26.0898 10.9733 26.366L9.24128 27.366C8.76299 27.6421 8.1514 27.4782 7.87525 26.9999C7.59911 26.5216 7.76299 25.9101 8.24128 25.6339L9.97333 24.6339C10.4516 24.3578 11.0632 24.5216 11.3394 24.9999Z" fill="#F9BE1A"/>
<path d="M25.6337 31.7583C25.9098 32.2366 26.5214 32.4005 26.9997 32.1243C27.478 31.8482 27.6419 31.2366 27.3657 30.7583L26.3657 29.0263C26.0896 28.548 25.478 28.3841 24.9997 28.6602C24.5214 28.9364 24.3575 29.548 24.6337 30.0263L25.6337 31.7583Z" fill="#F9BE1A"/>
<path d="M14.9997 11.3398C14.5214 11.6159 13.9098 11.452 13.6337 10.9738L12.6337 9.24171C12.3575 8.76341 12.5214 8.15182 12.9997 7.87568C13.478 7.59954 14.0896 7.76341 14.3657 8.24171L15.3657 9.97376C15.6419 10.452 15.478 11.0636 14.9997 11.3398Z" fill="#F9BE1A"/>
<path d="M20 30C20.5523 30 21 30.4477 21 31V33C21 33.5523 20.5523 34 20 34C19.4477 34 19 33.5523 19 33V31C19 30.4477 19.4477 30 20 30Z" fill="#F9BE1A"/>
<path d="M33 21C33.5523 21 34 20.5523 34 20C34 19.4477 33.5523 19 33 19H31C30.4477 19 30 19.4477 30 20C30 20.5523 30.4477 21 31 21H33Z" fill="#F9BE1A"/>
<path d="M10 20C10 20.5523 9.55228 21 9 21H7C6.44772 21 6 20.5523 6 20C6 19.4477 6.44772 19 7 19H9C9.55228 19 10 19.4477 10 20Z" fill="#F9BE1A"/>
<path d="M19.9995 28C24.4178 28 27.9995 24.4182 27.9995 20C27.9995 15.5817 24.4178 12 19.9995 12C15.5812 12 11.9995 15.5817 11.9995 20C11.9995 24.4182 15.5812 28 19.9995 28Z" fill="#F9BE1A"/>
</svg>
