<?xml version="1.0" encoding="utf-8"?>
<!-- Generator: Adobe Illustrator 26.1.0, SVG Export Plug-In . SVG Version: 6.00 Build 0)  -->
<svg version="1.1" id="Шар_1" xmlns="http://www.w3.org/2000/svg" xmlns:xlink="http://www.w3.org/1999/xlink" x="0px" y="0px"
	 viewBox="0 0 40 40" style="enable-background:new 0 0 40 40;" xml:space="preserve">
<style type="text/css">
	.st0{fill:#F9BE1A;}
	.st1{fill:#F0F0F0;}
</style>
<path class="st0" d="M24,9c0-0.6-0.4-1-1-1s-1,0.4-1,1v1c0,0.6,0.4,1,1,1s1-0.4,1-1V9z"/>
<path class="st0" d="M19,12.1c-0.5,0.3-1.1,0.1-1.4-0.4l-0.5-0.9c-0.3-0.5-0.1-1.1,0.4-1.4s1.1-0.1,1.4,0.4l0.5,0.9
	C19.6,11.2,19.5,11.8,19,12.1z"/>
<path class="st0" d="M28.5,9.5c0.5,0.3,0.6,0.9,0.4,1.4l-0.5,0.9c-0.3,0.5-0.9,0.6-1.4,0.4c-0.5-0.3-0.6-0.9-0.4-1.4l0.5-0.9
	C27.4,9.4,28,9.2,28.5,9.5z"/>
<path class="st0" d="M19,25.9c0.5,0.3,0.6,0.9,0.4,1.4l-0.5,0.9c-0.3,0.5-0.9,0.6-1.4,0.4c-0.5-0.3-0.6-0.9-0.4-1.4l0.5-0.9
	C17.9,25.8,18.5,25.7,19,25.9z"/>
<path class="st0" d="M31.2,24.9c0.5,0.3,1.1,0.1,1.4-0.4c0.3-0.5,0.1-1.1-0.4-1.4l-0.9-0.5c-0.5-0.3-1.1-0.1-1.4,0.4
	c-0.3,0.5-0.1,1.1,0.4,1.4L31.2,24.9z"/>
<path class="st0" d="M16.1,15c-0.3,0.5-0.9,0.6-1.4,0.4l-0.9-0.5c-0.5-0.3-0.6-0.9-0.4-1.4c0.3-0.5,0.9-0.6,1.4-0.4l0.9,0.5
	C16.2,13.9,16.3,14.5,16.1,15z"/>
<path class="st0" d="M32.2,14.9c0.5-0.3,0.6-0.9,0.4-1.4c-0.3-0.5-0.9-0.6-1.4-0.4l-0.9,0.5c-0.5,0.3-0.6,0.9-0.4,1.4
	c0.3,0.5,0.9,0.6,1.4,0.4L32.2,14.9z"/>
<path class="st0" d="M16.1,23c0.3,0.5,0.1,1.1-0.4,1.4l-0.9,0.5c-0.5,0.3-1.1,0.1-1.4-0.4c-0.3-0.5-0.1-1.1,0.4-1.4l0.9-0.5
	C15.2,22.4,15.8,22.5,16.1,23z"/>
<path class="st0" d="M27.1,28.2c0.3,0.5,0.9,0.6,1.4,0.4c0.5-0.3,0.6-0.9,0.4-1.4l-0.5-0.9c-0.3-0.5-0.9-0.6-1.4-0.4
	s-0.6,0.9-0.4,1.4L27.1,28.2z"/>
<path class="st0" d="M23,27c0.6,0,1,0.4,1,1v1c0,0.6-0.4,1-1,1s-1-0.4-1-1v-1C22,27.4,22.4,27,23,27z"/>
<path class="st0" d="M33,20c0.6,0,1-0.4,1-1s-0.4-1-1-1h-1c-0.6,0-1,0.4-1,1s0.4,1,1,1H33z"/>
<path class="st0" d="M15,19c0,0.6-0.4,1-1,1h-1c-0.6,0-1-0.4-1-1s0.4-1,1-1h1C14.6,18,15,18.4,15,19z"/>
<path class="st0" d="M23,26c3.9,0,7-3.1,7-7c0-3.9-3.1-7-7-7s-7,3.1-7,7C16,22.9,19.1,26,23,26z"/>
<path class="st1" d="M9.3,22.3C9.1,21.7,9,21.1,9,20.5c0-3.6,2.9-6.5,6.5-6.5c3,0,5.5,2,6.2,4.7c0.7-1,1.9-1.7,3.3-1.7
	c2.2,0,4,1.8,4,4c0,0.3,0,0.7-0.1,1H29c2.8,0,5,2.2,5,5s-2.2,5-5,5H11c-2.8,0-5-2.2-5-5C6,24.9,7.4,23,9.3,22.3z"/>
</svg>
