<?xml version="1.0" encoding="utf-8"?>
<!-- Generator: Adobe Illustrator 26.1.0, SVG Export Plug-In . SVG Version: 6.00 Build 0)  -->
<svg version="1.1" id="Шар_1" xmlns="http://www.w3.org/2000/svg" xmlns:xlink="http://www.w3.org/1999/xlink" x="0px" y="0px"
	 viewBox="0 0 40 40" style="enable-background:new 0 0 40 40;" xml:space="preserve">
<style type="text/css">
	.st0{fill:#F9BE1A;}
	.st1{fill:#F0F0F0;}
</style>
<path class="st0" d="M24,16c0-0.2-0.2-0.2-0.3-0.1c-1.8,2.4-5.2,3-7.6,1.2c-2.4-1.8-3-5.2-1.2-7.6c0.3-0.5,0.8-0.9,1.2-1.2
	C16.2,8.2,16.2,8,16,8c-4.4,0-8,3.6-8,8s3.6,8,8,8S24,20.4,24,16z"/>
<path class="st1" d="M30.8,24.5c0.1-0.4,0.2-0.8,0.2-1.2c0-2.4-2-4.3-4.4-4.3c-2,0-3.7,1.3-4.2,3.1C21.8,21.4,21,21,20.1,21
	c-1.5,0-2.7,1.2-2.7,2.7c0,0.2,0,0.5,0.1,0.7h-0.1c-1.8,0-3.3,1.5-3.3,3.3s1.5,3.3,3.3,3.3h12.3c1.8,0,3.3-1.5,3.3-3.3
	C33,26.3,32.1,25,30.8,24.5z"/>
</svg>
