<?xml version="1.0" encoding="utf-8"?>
<!-- Generator: Adobe Illustrator 26.1.0, SVG Export Plug-In . SVG Version: 6.00 Build 0)  -->
<svg version="1.1" id="Шар_1" xmlns="http://www.w3.org/2000/svg" xmlns:xlink="http://www.w3.org/1999/xlink" x="0px" y="0px"
	 viewBox="0 0 40 40" style="enable-background:new 0 0 40 40;" xml:space="preserve">
<style type="text/css">
	.st0{fill:#F9BE1A;}
	.st1{fill-rule:evenodd;clip-rule:evenodd;fill:#F0F0F0;}
</style>
<path class="st0" d="M18,8c0.6,0,1,0.4,1,1v1c0,0.6-0.4,1-1,1s-1-0.4-1-1V9C17,8.4,17.4,8,18,8z"/>
<path class="st0" d="M18,27c0.6,0,1,0.4,1,1v1c0,0.6-0.4,1-1,1s-1-0.4-1-1v-1C17,27.4,17.4,27,18,27z"/>
<path class="st0" d="M28,20c0.6,0,1-0.4,1-1s-0.4-1-1-1h-1c-0.6,0-1,0.4-1,1s0.4,1,1,1H28z"/>
<path class="st0" d="M10,19c0,0.6-0.4,1-1,1H8c-0.6,0-1-0.4-1-1s0.4-1,1-1h1C9.6,18,10,18.4,10,19z"/>
<path class="st0" d="M23.9,10.8c0.3-0.5,0.1-1.1-0.4-1.4c-0.5-0.3-1.1-0.1-1.4,0.4l-0.5,0.9c-0.3,0.5-0.1,1.1,0.4,1.4
	c0.5,0.3,1.1,0.1,1.4-0.4L23.9,10.8z"/>
<path class="st0" d="M14,25.9c0.5,0.3,0.6,0.9,0.4,1.4l-0.5,0.9c-0.3,0.5-0.9,0.6-1.4,0.4c-0.5-0.3-0.6-0.9-0.4-1.4l0.5-0.9
	C12.9,25.8,13.5,25.7,14,25.9z"/>
<path class="st0" d="M26.2,24.9c0.5,0.3,1.1,0.1,1.4-0.4c0.3-0.5,0.1-1.1-0.4-1.4l-0.9-0.5c-0.5-0.3-1.1-0.1-1.4,0.4
	c-0.3,0.5-0.1,1.1,0.4,1.4L26.2,24.9z"/>
<path class="st0" d="M11.1,15c-0.3,0.5-0.9,0.6-1.4,0.4l-0.9-0.5c-0.5-0.3-0.6-0.9-0.4-1.4c0.3-0.5,0.9-0.6,1.4-0.4l0.9,0.5
	C11.2,13.9,11.3,14.5,11.1,15z"/>
<path class="st0" d="M27.2,14.9c0.5-0.3,0.6-0.9,0.4-1.4c-0.3-0.5-0.9-0.6-1.4-0.4l-0.9,0.5c-0.5,0.3-0.6,0.9-0.4,1.4
	c0.3,0.5,0.9,0.6,1.4,0.4L27.2,14.9z"/>
<path class="st0" d="M11.1,23c0.3,0.5,0.1,1.1-0.4,1.4l-0.9,0.5c-0.5,0.3-1.1,0.1-1.4-0.4c-0.3-0.5-0.1-1.1,0.4-1.4l0.9-0.5
	C10.2,22.4,10.8,22.5,11.1,23z"/>
<path class="st0" d="M22.1,28.2c0.3,0.5,0.9,0.6,1.4,0.4c0.5-0.3,0.6-0.9,0.4-1.4l-0.5-0.9c-0.3-0.5-0.9-0.6-1.4-0.4
	c-0.5,0.3-0.6,0.9-0.4,1.4L22.1,28.2z"/>
<path class="st0" d="M14,12.1c-0.5,0.3-1.1,0.1-1.4-0.4l-0.5-0.9c-0.3-0.5-0.1-1.1,0.4-1.4c0.5-0.3,1.1-0.1,1.4,0.4l0.5,0.9
	C14.6,11.2,14.5,11.8,14,12.1z"/>
<path class="st0" d="M18,26c3.9,0,7-3.1,7-7s-3.1-7-7-7s-7,3.1-7,7S14.1,26,18,26z"/>
<path class="st1" d="M30.8,25.5c0.1-0.4,0.2-0.8,0.2-1.2c0-2.4-2-4.3-4.4-4.3c-2,0-3.7,1.3-4.2,3.1C21.8,22.4,21,22,20.1,22
	c-1.5,0-2.7,1.2-2.7,2.7c0,0.2,0,0.5,0.1,0.7h-0.1c-1.8,0-3.3,1.5-3.3,3.3c0,1.8,1.5,3.3,3.3,3.3h12.3c1.8,0,3.3-1.5,3.3-3.3
	C33,27.2,32.1,26,30.8,25.5z"/>
</svg>
