<?xml version="1.0" encoding="utf-8"?>
<!-- Generator: Adobe Illustrator 26.1.0, SVG Export Plug-In . SVG Version: 6.00 Build 0)  -->
<svg version="1.1" id="Шар_1" xmlns="http://www.w3.org/2000/svg" xmlns:xlink="http://www.w3.org/1999/xlink" x="0px" y="0px"
	 viewBox="0 0 40 40" style="enable-background:new 0 0 40 40;" xml:space="preserve">
<style type="text/css">
	.st0{fill:#7295F6;}
	.st1{fill-rule:evenodd;clip-rule:evenodd;fill:#DDDDDD;}
</style>
<path class="st0" d="M17.5,19.1c0.5,0.2,0.8,0.8,0.6,1.3l-3,8c-0.2,0.5-0.8,0.8-1.3,0.6c-0.5-0.2-0.8-0.8-0.6-1.3l3-8
	C16.4,19.1,17,18.9,17.5,19.1z"/>
<path class="st0" d="M25.5,19.1c0.5,0.2,0.8,0.8,0.6,1.3l-3,8c-0.2,0.5-0.8,0.8-1.3,0.6c-0.5-0.2-0.8-0.8-0.6-1.3l3-8
	C24.4,19.1,25,18.9,25.5,19.1z"/>
<path class="st0" d="M12.4,22.1c0.5,0.2,0.8,0.8,0.6,1.3l-3,8c-0.2,0.5-0.8,0.8-1.3,0.6c-0.5-0.2-0.8-0.8-0.6-1.3l3-8
	C11.3,22.1,11.8,21.9,12.4,22.1z"/>
<path class="st0" d="M20.9,23.4c0.2-0.5-0.1-1.1-0.6-1.3c-0.5-0.2-1.1,0.1-1.3,0.6l-3,8c-0.2,0.5,0.1,1.1,0.6,1.3
	c0.5,0.2,1.1-0.1,1.3-0.6L20.9,23.4z"/>
<path class="st0" d="M28.9,23.4c0.2-0.5-0.1-1.1-0.6-1.3c-0.5-0.2-1.1,0.1-1.3,0.6l-3,8c-0.2,0.5,0.1,1.1,0.6,1.3
	c0.5,0.2,1.1-0.1,1.3-0.6L28.9,23.4z"/>
<path class="st1" d="M9.3,14.3C9.1,13.7,9,13.1,9,12.5C9,8.9,11.9,6,15.5,6c3,0,5.5,2,6.2,4.7C22.5,9.7,23.7,9,25,9c2.2,0,4,1.8,4,4
	c0,0.3,0,0.7-0.1,1H29c2.8,0,5,2.2,5,5s-2.2,5-5,5H11c-2.8,0-5-2.2-5-5C6,16.9,7.4,15,9.3,14.3z"/>
</svg>
