<svg fill="none" viewBox="0 0 40 40" xmlns="http://www.w3.org/2000/svg">
  <path fill="#F9BE1A" d="M32.624 21.895c.115-.16.376-.091.376.105 0 5.523-4.477 10-10 10s-10-4.477-10-10c0-1.821.487-3.53 1.338-5h5.995a6.818 6.818 0 0 0 12.29 4.895Z"/>
  <path fill="#ABABAB" fill-rule="evenodd" d="M5 16a1 1 0 0 0 1 1h27a1 1 0 1 0 0-2h-4a1 1 0 1 1 0-2h5a1 1 0 1 0 0-2H12a1 1 0 1 0 0 2h2a1 1 0 1 1 0 2H6a1 1 0 0 0-1 1Zm9-8a1 1 0 0 0 1 1h11a1 1 0 1 0 0-2H15a1 1 0 0 0-1 1Zm-2 0a1 1 0 0 1-1 1H9a1 1 0 1 1 0-2h2a1 1 0 0 1 1 1Z" clip-rule="evenodd"/>
</svg>
