<svg width="40" height="40" viewBox="0 0 40 40" fill="none" xmlns="http://www.w3.org/2000/svg">
<path d="M21 7.00003C21 6.44775 20.5523 6.00003 20 6.00003C19.4477 6.00003 19 6.44775 19 7.00003V9.00003C19 9.55232 19.4477 10 20 10C20.5523 10 21 9.55232 21 9.00003V7.00003Z" fill="#F9BE1A"/>
<path d="M33 21C33.5523 21 34 20.5523 34 20C34 19.4477 33.5523 19 33 19H31C30.4477 19 30 19.4477 30 20C30 20.5523 30.4477 21 31 21H33Z" fill="#F9BE1A"/>
<path d="M10 20C10 20.5523 9.55228 21 9 21H7C6.44772 21 6 20.5523 6 20C6 19.4477 6.44772 19 7 19H9C9.55228 19 10 19.4477 10 20Z" fill="#F9BE1A"/>
<path d="M27.3658 9.2417C27.642 8.7634 27.4781 8.15181 26.9998 7.87567C26.5215 7.59953 25.9099 7.7634 25.6338 8.2417L24.6338 9.97375C24.3576 10.452 24.5215 11.0636 24.9998 11.3398C25.4781 11.6159 26.0897 11.452 26.3658 10.9737L27.3658 9.2417Z" fill="#F9BE1A"/>
<path d="M11.3394 15C11.0632 15.4783 10.4516 15.6422 9.97333 15.366L8.24128 14.366C7.76299 14.0899 7.59911 13.4783 7.87525 13C8.1514 12.5217 8.76299 12.3578 9.24128 12.634L10.9733 13.634C11.4516 13.9101 11.6155 14.5217 11.3394 15Z" fill="#F9BE1A"/>
<path d="M31.7585 14.3661C32.2368 14.09 32.4007 13.4784 32.1245 13.0001C31.8484 12.5218 31.2368 12.3579 30.7585 12.6341L29.0264 13.6341C28.5481 13.9102 28.3843 14.5218 28.6604 15.0001C28.9366 15.4784 29.5481 15.6423 30.0264 15.3661L31.7585 14.3661Z" fill="#F9BE1A"/>
<path d="M15.0002 11.3398C14.5219 11.6159 13.9103 11.452 13.6342 10.9738L12.6342 9.24171C12.358 8.76341 12.5219 8.15182 13.0002 7.87568C13.4785 7.59954 14.0901 7.76341 14.3662 8.24171L15.3662 9.97376C15.6424 10.452 15.4785 11.0636 15.0002 11.3398Z" fill="#F9BE1A"/>
<path d="M29 20C29 20.6874 28.9229 21.3568 28.777 22H11.223C11.0771 21.3568 11 20.6874 11 20C11 15.0294 15.0294 11 20 11C24.9706 11 29 15.0294 29 20Z" fill="#F9BE1A"/>
<path d="M6 25C6 24.4477 6.44772 24 7 24L33 24C33.5523 24 34 24.4477 34 25C34 25.5523 33.5523 26 33 26L7 26C6.44772 26 6 25.5523 6 25Z" fill="#ABABAB"/>
<path d="M8 29C8 28.4477 8.44772 28 9 28H31C31.5523 28 32 28.4477 32 29C32 29.5523 31.5523 30 31 30H9C8.44772 30 8 29.5523 8 29Z" fill="#ABABAB"/>
<path d="M11 32C10.4477 32 10 32.4477 10 33C10 33.5523 10.4477 34 11 34H29C29.5523 34 30 33.5523 30 33C30 32.4477 29.5523 32 29 32H11Z" fill="#ABABAB"/>
</svg>
