<?xml version="1.0" encoding="utf-8"?>
<!-- Generator: Adobe Illustrator 26.1.0, SVG Export Plug-In . SVG Version: 6.00 Build 0)  -->
<svg version="1.1" id="Шар_1" xmlns="http://www.w3.org/2000/svg" xmlns:xlink="http://www.w3.org/1999/xlink" x="0px" y="0px"
	 viewBox="0 0 40 40" style="enable-background:new 0 0 40 40;" xml:space="preserve">
<style type="text/css">
	.st0{fill-rule:evenodd;clip-rule:evenodd;fill:#DDDDDD;}
	.st1{fill-rule:evenodd;clip-rule:evenodd;fill:#7295F6;}
	.st2{fill:none;stroke:#7295F6;stroke-width:0.35;}
</style>
<path class="st0" d="M9.3,14.3C9.1,13.7,9,13.1,9,12.5C9,8.9,11.9,6,15.5,6c3,0,5.5,2,6.2,4.7C22.5,9.7,23.7,9,25,9c2.2,0,4,1.8,4,4
	c0,0.3,0,0.7-0.1,1H29c2.8,0,5,2.2,5,5s-2.2,5-5,5H11c-2.8,0-5-2.2-5-5C6,16.9,7.4,15,9.3,14.3z"/>
<path class="st1" d="M20,27l1.1-5.4c0.1-0.7-0.4-1.3-1.1-1.3c-0.7,0-1.2,0.6-1.1,1.3L20,27l-4.1-3.6c-0.5-0.5-1.3-0.3-1.7,0.3
	c-0.3,0.6-0.1,1.4,0.6,1.6L20,27l-5.2,1.8c-0.7,0.2-0.9,1-0.6,1.6c0.3,0.6,1.2,0.7,1.7,0.3L20,27l-1.1,5.4c-0.1,0.7,0.4,1.3,1.1,1.3
	c0.7,0,1.2-0.6,1.1-1.3L20,27l4.1,3.6c0.5,0.5,1.3,0.3,1.7-0.3c0.3-0.6,0.1-1.4-0.6-1.6L20,27l5.2-1.8c0.7-0.2,0.9-1,0.6-1.6
	c-0.3-0.6-1.1-0.7-1.7-0.3L20,27z"/>
<path class="st2" d="M20,27l1.1-5.4c0.1-0.7-0.4-1.3-1.1-1.3c-0.7,0-1.2,0.6-1.1,1.3L20,27z M20,27l-4.1-3.6
	c-0.5-0.5-1.3-0.3-1.7,0.3c-0.3,0.6-0.1,1.4,0.6,1.6L20,27z M20,27l-5.2,1.8c-0.7,0.2-0.9,1-0.6,1.6c0.3,0.6,1.2,0.7,1.7,0.3L20,27z
	 M20,27l-1.1,5.4c-0.1,0.7,0.4,1.3,1.1,1.3c0.7,0,1.2-0.6,1.1-1.3L20,27z M20,27l4.1,3.6c0.5,0.5,1.3,0.3,1.7-0.3
	c0.3-0.6,0.1-1.4-0.6-1.6L20,27z M20,27l5.2-1.8c0.7-0.2,0.9-1,0.6-1.6c-0.3-0.6-1.1-0.7-1.7-0.3L20,27z"/>
</svg>
