<svg fill="none" viewBox="0 0 40 40" xmlns="http://www.w3.org/2000/svg">
  <path fill="#F9BE1A" fill-rule="evenodd" d="M34 14c0-.157-.21-.212-.301-.084A5.455 5.455 0 1 1 26.084 6.3c.128-.09.073-.3-.084-.3a8 8 0 1 0 8 8Z" clip-rule="evenodd"/>
  <path fill="#DDD" fill-rule="evenodd" d="M9.256 20.313a6.5 6.5 0 0 1 12.486-3.633A4 4 0 0 1 28.874 20H29a5 5 0 0 1 0 10H11a5 5 0 0 1-1.744-9.688Z" clip-rule="evenodd"/>
  <path fill="#7295F6" d="m13.634 21.7.898 4.49-3.44-3.023a1.393 1.393 0 1 0-1.365 2.366L14.064 27l-4.337 1.467a1.393 1.393 0 1 0 1.366 2.366l3.439-3.022-.898 4.49a1.393 1.393 0 1 0 2.732 0l-.898-4.49 3.44 3.022a1.393 1.393 0 1 0 1.365-2.366L15.936 27l4.337-1.467a1.393 1.393 0 1 0-1.366-2.366l-3.439 3.022.898-4.49a1.393 1.393 0 1 0-2.732 0Z"/>
</svg>
