<svg width="40" height="40" viewBox="0 0 40 40" fill="none" xmlns="http://www.w3.org/2000/svg">
<path fill-rule="evenodd" clip-rule="evenodd" d="M6 21C6 20.4477 6.44772 20 7 20H15C15.5523 20 16 20.4477 16 21C16 21.5523 15.5523 22 15 22H7C6.44772 22 6 21.5523 6 21Z" fill="#7295F6"/>
<path fill-rule="evenodd" clip-rule="evenodd" d="M33.1543 18.2242C33.6646 18.4355 33.9069 19.0205 33.6955 19.5307C33.3928 20.2616 32.8801 20.8863 32.2223 21.3259C31.5645 21.7654 30.7911 22 30 22L19 22C18.4477 22 18 21.5523 18 21C18 20.4477 18.4477 20 19 20L30 20C30.3956 20 30.7822 19.8827 31.1111 19.6629C31.44 19.4432 31.6964 19.1308 31.8478 18.7654C32.0591 18.2551 32.6441 18.0128 33.1543 18.2242Z" fill="#7295F6"/>
<path fill-rule="evenodd" clip-rule="evenodd" d="M12 25C12 25.5523 12.4477 26 13 26L24 26C24.5523 26 25 25.5523 25 25C25 24.4477 24.5523 24 24 24L13 24C12.4477 24 12 24.4477 12 25Z" fill="#7295F6"/>
<path fill-rule="evenodd" clip-rule="evenodd" d="M26.4142 11.1716C26.8047 10.781 27.4379 10.781 27.8284 11.1716C28.3878 11.731 28.7688 12.4437 28.9231 13.2196C29.0775 13.9956 28.9983 14.7998 28.6955 15.5307C28.3928 16.2616 27.8801 16.8863 27.2223 17.3259C26.5645 17.7654 25.7911 18 25 18H15C14.4477 18 14 17.5523 14 17C14 16.4477 14.4477 16 15 16H25C25.3956 16 25.7822 15.8827 26.1111 15.6629C26.44 15.4432 26.6964 15.1308 26.8478 14.7654C26.9991 14.3999 27.0387 13.9978 26.9616 13.6098C26.8844 13.2219 26.6939 12.8655 26.4142 12.5858C26.0237 12.1953 26.0237 11.5621 26.4142 11.1716Z" fill="#7295F6"/>
<path d="M32 29.3333C32 30.8061 30.8807 32 29.5 32C28.1193 32 27 30.8061 27 29.3333C27 27.8606 29.5 24 29.5 24C29.5 24 32 27.8606 32 29.3333Z" fill="#7295F6"/>
<path d="M13 12.6667C13 13.9553 11.8807 15 10.5 15C9.11929 15 8 13.9553 8 12.6667C8 11.378 10.5 8 10.5 8C10.5 8 13 11.378 13 12.6667Z" fill="#7295F6"/>
</svg>
