<svg width="40" height="40" viewBox="0 0 40 40" fill="none" xmlns="http://www.w3.org/2000/svg">
<path fill-rule="evenodd" clip-rule="evenodd" d="M6 19C6 18.4477 6.44772 18 7 18H15C15.5523 18 16 18.4477 16 19C16 19.5523 15.5523 20 15 20H7C6.44772 20 6 19.5523 6 19Z" fill="#7295F6"/>
<path fill-rule="evenodd" clip-rule="evenodd" d="M30.3902 14.0384C30.0022 13.9613 29.6001 14.0009 29.2346 14.1522C28.8692 14.3036 28.5568 14.56 28.3371 14.8889C28.1173 15.2178 28 15.6044 28 16C28 16.5523 27.5523 17 27 17C26.4477 17 26 16.5523 26 16C26 15.2089 26.2346 14.4355 26.6741 13.7777C27.1136 13.1199 27.7384 12.6072 28.4693 12.3045C29.2002 12.0017 30.0044 11.9225 30.7804 12.0769C31.5563 12.2312 32.269 12.6122 32.8284 13.1716C33.3878 13.731 33.7688 14.4437 33.9231 15.2196C34.0775 15.9956 33.9983 16.7998 33.6955 17.5307C33.3928 18.2616 32.8801 18.8863 32.2223 19.3259C31.5645 19.7654 30.7911 20 30 20L19 20C18.4477 20 18 19.5523 18 19C18 18.4477 18.4477 18 19 18L30 18C30.3956 18 30.7822 17.8827 31.1111 17.6629C31.44 17.4432 31.6964 17.1308 31.8478 16.7654C31.9991 16.3999 32.0387 15.9978 31.9616 15.6098C31.8844 15.2219 31.6939 14.8655 31.4142 14.5858C31.1345 14.3061 30.7781 14.1156 30.3902 14.0384Z" fill="#7295F6"/>
<path fill-rule="evenodd" clip-rule="evenodd" d="M24.3902 27.9616C24.0022 28.0387 23.6001 27.9991 23.2346 27.8478C22.8692 27.6964 22.5568 27.44 22.3371 27.1111C22.1173 26.7822 22 26.3956 22 26C22 25.4477 21.5523 25 21 25C20.4477 25 20 25.4477 20 26C20 26.7911 20.2346 27.5645 20.6741 28.2223C21.1136 28.8801 21.7384 29.3928 22.4693 29.6955C23.2002 29.9983 24.0044 30.0775 24.7804 29.9231C25.5563 29.7688 26.269 29.3878 26.8284 28.8284C27.3878 28.269 27.7688 27.5563 27.9231 26.7804C28.0775 26.0044 27.9983 25.2002 27.6955 24.4693C27.3928 23.7384 26.8801 23.1137 26.2223 22.6741C25.5645 22.2346 24.7911 22 24 22L13 22C12.4477 22 12 22.4477 12 23C12 23.5523 12.4477 24 13 24L24 24C24.3956 24 24.7822 24.1173 25.1111 24.3371C25.44 24.5568 25.6964 24.8692 25.8478 25.2346C25.9991 25.6001 26.0387 26.0022 25.9616 26.3902C25.8844 26.7781 25.6939 27.1345 25.4142 27.4142C25.1345 27.6939 24.7781 27.8844 24.3902 27.9616Z" fill="#7295F6"/>
<path fill-rule="evenodd" clip-rule="evenodd" d="M20.3902 10.0384C20.0022 9.96126 19.6001 10.0009 19.2346 10.1522C18.8692 10.3036 18.5568 10.56 18.3371 10.8889C18.1173 11.2178 18 11.6044 18 12C18 12.5523 17.5523 13 17 13C16.4477 13 16 12.5523 16 12C16 11.2089 16.2346 10.4355 16.6741 9.77772C17.1136 9.11993 17.7384 8.60724 18.4693 8.30448C19.2002 8.00173 20.0044 7.92252 20.7804 8.07686C21.5563 8.2312 22.269 8.61216 22.8284 9.17157C23.3878 9.73098 23.7688 10.4437 23.9231 11.2196C24.0775 11.9956 23.9983 12.7998 23.6955 13.5307C23.3928 14.2616 22.8801 14.8863 22.2223 15.3259C21.5645 15.7654 20.7911 16 20 16L9 16C8.44772 16 8 15.5523 8 15C8 14.4477 8.44772 14 9 14L20 14C20.3956 14 20.7822 13.8827 21.1111 13.6629C21.44 13.4432 21.6964 13.1308 21.8478 12.7654C21.9991 12.3999 22.0387 11.9978 21.9616 11.6098C21.8844 11.2219 21.6939 10.8655 21.4142 10.5858C21.1345 10.3061 20.7781 10.1156 20.3902 10.0384Z" fill="#7295F6"/>
</svg>
