<svg width="40" height="40" viewBox="0 0 40 40" fill="none" xmlns="http://www.w3.org/2000/svg">
<path d="M10.2367 10.5345L9.73145 7.95671C9.63444 7.46177 10.0054 7 10.5 7C10.9947 7 11.3656 7.46177 11.2686 7.95671L10.7634 10.5344L12.6984 8.7991C13.07 8.4659 13.6473 8.56286 13.8946 8.99998C14.1419 9.4371 13.9355 9.99583 13.467 10.1576L11.0267 11L13.467 11.8424C13.9355 12.0041 14.1419 12.5629 13.8946 13C13.6473 13.4371 13.07 13.5341 12.6984 13.2009L10.7634 11.4655L11.2686 14.0433C11.3656 14.5382 10.9947 15 10.5 15C10.0054 15 9.63444 14.5382 9.73145 14.0433L10.2367 11.4654L8.30158 13.2009C7.93005 13.5341 7.35267 13.4371 7.10536 13C6.85805 12.5629 7.06445 12.0041 7.53299 11.8424L9.97326 11L7.53299 10.1576C7.06445 9.99583 6.85805 9.4371 7.10536 8.99998C7.35267 8.56286 7.93005 8.4659 8.30158 8.7991L10.2367 10.5345Z" fill="#7295F6"/>
<path d="M19.2346 12.1522C19.6001 12.0009 20.0022 11.9613 20.3902 12.0384C20.7781 12.1156 21.1345 12.3061 21.4142 12.5858C21.6939 12.8655 21.8844 13.2219 21.9616 13.6098C22.0387 13.9978 21.9991 14.3999 21.8478 14.7654C21.6964 15.1308 21.44 15.4432 21.1111 15.6629C20.7822 15.8827 20.3956 16 20 16H15C14.4477 16 14 16.4477 14 17C14 17.5523 14.4477 18 15 18H20C20.7911 18 21.5645 17.7654 22.2223 17.3259C22.8801 16.8863 23.3928 16.2616 23.6955 15.5307C23.9983 14.7998 24.0775 13.9956 23.9231 13.2196C23.7688 12.4437 23.3878 11.731 22.8284 11.1716C22.269 10.6122 21.5563 10.2312 20.7804 10.0769C20.0044 9.92252 19.2002 10.0017 18.4693 10.3045C17.7384 10.6072 17.1136 11.1199 16.6741 11.7777C16.2346 12.4355 16 13.2089 16 14C16 14.5523 16.4477 15 17 15C17.5523 15 18 14.5523 18 14C18 13.6044 18.1173 13.2178 18.3371 12.8889C18.5568 12.56 18.8692 12.3036 19.2346 12.1522Z" fill="#7295F6"/>
<path d="M30.3902 16.0384C30.0022 15.9613 29.6001 16.0009 29.2346 16.1522C28.8692 16.3036 28.5568 16.56 28.3371 16.8889C28.1173 17.2178 28 17.6044 28 18C28 18.5523 27.5523 19 27 19C26.4477 19 26 18.5523 26 18C26 17.2089 26.2346 16.4355 26.6741 15.7777C27.1136 15.1199 27.7384 14.6072 28.4693 14.3045C29.2002 14.0017 30.0044 13.9225 30.7804 14.0769C31.5563 14.2312 32.269 14.6122 32.8284 15.1716C33.3878 15.731 33.7688 16.4437 33.9231 17.2196C34.0775 17.9956 33.9983 18.7998 33.6955 19.5307C33.3928 20.2616 32.8801 20.8863 32.2223 21.3259C31.5645 21.7654 30.7911 22 30 22L19 22C18.4477 22 18 21.5523 18 21C18 20.4477 18.4477 20 19 20L30 20C30.3956 20 30.7822 19.8827 31.1111 19.6629C31.44 19.4432 31.6964 19.1308 31.8478 18.7654C31.9991 18.3999 32.0387 17.9978 31.9616 17.6098C31.8844 17.2219 31.6939 16.8655 31.4142 16.5858C31.1345 16.3061 30.7781 16.1156 30.3902 16.0384Z" fill="#7295F6"/>
<path d="M7 20C6.44772 20 6 20.4477 6 21C6 21.5523 6.44772 22 7 22H15C15.5523 22 16 21.5523 16 21C16 20.4477 15.5523 20 15 20H7Z" fill="#7295F6"/>
<path d="M13 26C12.4477 26 12 25.5523 12 25C12 24.4477 12.4477 24 13 24H22C22.5523 24 23 24.4477 23 25C23 25.5523 22.5523 26 22 26H13Z" fill="#7295F6"/>
<path d="M28.7314 25.9567L29.2367 28.5345L27.3016 26.7991C26.93 26.4659 26.3527 26.5629 26.1054 27C25.8581 27.4371 26.0645 27.9958 26.533 28.1576L28.9733 29L26.533 29.8424C26.0645 30.0041 25.8581 30.5629 26.1054 31C26.3527 31.4371 26.93 31.5341 27.3016 31.2009L29.2367 29.4654L28.7314 32.0433C28.6344 32.5382 29.0054 33 29.5 33C29.9947 33 30.3656 32.5382 30.2686 32.0433L29.7634 29.4655L31.6984 31.2009C32.07 31.5341 32.6473 31.4371 32.8946 31C33.1419 30.5629 32.9355 30.0041 32.467 29.8424L30.0267 29L32.467 28.1576C32.9355 27.9958 33.1419 27.4371 32.8946 27C32.6473 26.5629 32.07 26.4659 31.6984 26.7991L29.7634 28.5344L30.2686 25.9567C30.3656 25.4618 29.9947 25 29.5 25C29.0054 25 28.6344 25.4618 28.7314 25.9567Z" fill="#7295F6"/>
</svg>
