<svg width="40" height="40" viewBox="0 0 40 40" fill="none" xmlns="http://www.w3.org/2000/svg">
<path fill-rule="evenodd" clip-rule="evenodd" d="M6 19C6 18.4477 6.44772 18 7 18H15C15.5523 18 16 18.4477 16 19C16 19.5523 15.5523 20 15 20H7C6.44772 20 6 19.5523 6 19Z" fill="#7295F6"/>
<path fill-rule="evenodd" clip-rule="evenodd" d="M33.1543 16.2242C33.6646 16.4355 33.9069 17.0205 33.6955 17.5307C33.3928 18.2616 32.8801 18.8863 32.2223 19.3259C31.5645 19.7654 30.7911 20 30 20L19 20C18.4477 20 18 19.5523 18 19C18 18.4477 18.4477 18 19 18L30 18C30.3956 18 30.7822 17.8827 31.1111 17.6629C31.44 17.4432 31.6964 17.1308 31.8478 16.7654C32.0591 16.2551 32.6441 16.0128 33.1543 16.2242Z" fill="#7295F6"/>
<path fill-rule="evenodd" clip-rule="evenodd" d="M26.7473 27.5661C27.2889 27.6738 27.8154 27.322 27.9231 26.7804C28.0775 26.0044 27.9983 25.2002 27.6955 24.4693C27.3928 23.7384 26.8801 23.1137 26.2223 22.6741C25.5645 22.2346 24.7911 22 24 22L13 22C12.4477 22 12 22.4477 12 23C12 23.5523 12.4477 24 13 24H24C24.3956 24 24.7822 24.1173 25.1111 24.3371C25.44 24.5568 25.6964 24.8692 25.8478 25.2346C25.9991 25.6001 26.0387 26.0022 25.9616 26.3902C25.8538 26.9319 26.2056 27.4583 26.7473 27.5661Z" fill="#7295F6"/>
<path fill-rule="evenodd" clip-rule="evenodd" d="M21.4142 9.17157C21.8047 8.78105 22.4379 8.78105 22.8284 9.17157C23.3878 9.73098 23.7688 10.4437 23.9231 11.2196C24.0775 11.9956 23.9983 12.7998 23.6955 13.5307C23.3928 14.2616 22.8801 14.8863 22.2223 15.3259C21.5645 15.7654 20.7911 16 20 16L9 16C8.44772 16 8 15.5523 8 15C8 14.4477 8.44772 14 9 14L20 14C20.3956 14 20.7822 13.8827 21.1111 13.6629C21.44 13.4432 21.6964 13.1308 21.8478 12.7654C21.9991 12.3999 22.0387 11.9978 21.9616 11.6098C21.8844 11.2219 21.6939 10.8655 21.4142 10.5858C21.0237 10.1953 21.0237 9.5621 21.4142 9.17157Z" fill="#7295F6"/>
<path d="M34 13C34 13.5523 33.5523 14 33 14C32.4477 14 32 13.5523 32 13C32 12.4477 32.4477 12 33 12C33.5523 12 34 12.4477 34 13Z" fill="#8FABF9"/>
<path d="M20 7C20 7.55228 19.5523 8 19 8C18.4477 8 18 7.55228 18 7C18 6.44772 18.4477 6 19 6C19.5523 6 20 6.44772 20 7Z" fill="#8FABF9"/>
<path d="M24 29C24 29.5523 23.5523 30 23 30C22.4477 30 22 29.5523 22 29C22 28.4477 22.4477 28 23 28C23.5523 28 24 28.4477 24 29Z" fill="#8FABF9"/>
</svg>
