<svg width="40" height="40" viewBox="0 0 40 40" fill="none" xmlns="http://www.w3.org/2000/svg">
<path fill-rule="evenodd" clip-rule="evenodd" d="M8.18176 18.5917C8.06286 18.0804 8 17.5475 8 17C8 13.134 11.134 10 15 10C17.6925 10 20.03 11.5202 21.201 13.7491C22.118 12.6785 23.4798 12 25 12C27.7614 12 30 14.2386 30 17C30 17.3539 29.9632 17.6992 29.8933 18.0323C32.7638 18.3372 35 20.7662 35 23.7176V24.2824C35 27.4402 32.4401 30 29.2824 30H10.7176C7.55985 30 5 27.4402 5 24.2824V23.7176C5 21.4706 6.29624 19.5263 8.18176 18.5917Z" fill="#DDDDDD"/>
</svg>
