<svg fill="none" viewBox="0 0 40 40" xmlns="http://www.w3.org/2000/svg">
  <path fill="#F9BE1A" d="M31.847 21.667H14.153A9.957 9.957 0 0 1 13 17c0-5.523 4.477-10 10-10 .197 0 .265.262.105.377a6.818 6.818 0 1 0 9.519 9.518c.115-.16.376-.091.376.105a9.957 9.957 0 0 1-1.153 4.667Z"/>
  <path fill="#D0D0D0" fill-rule="evenodd" d="M9 21a1 1 0 0 1 1-1h22a1 1 0 1 1 0 2h-4a1 1 0 1 0 0 2h6a1 1 0 1 1 0 2h-8a1 1 0 1 0 0 2h4a1 1 0 1 1 0 2H12a1 1 0 1 1 0-2h2a1 1 0 1 0 0-2H6a1 1 0 1 1 0-2h6a1 1 0 1 0 0-2h-2a1 1 0 0 1-1-1Zm18 12a1 1 0 0 0-1-1h-5a1 1 0 1 0 0 2h5a1 1 0 0 0 1-1Zm-11-1a1 1 0 1 1 0 2h-2a1 1 0 1 1 0-2h2Z" clip-rule="evenodd"/>
</svg>
