<svg width="40" height="40" viewBox="0 0 40 40" fill="none" xmlns="http://www.w3.org/2000/svg">
<path fill-rule="evenodd" clip-rule="evenodd" d="M11 28C11.5523 28 12 27.5523 12 27C12 26.4477 11.5523 26 11 26C10.4477 26 10 26.4477 10 27C10 27.5523 10.4477 28 11 28ZM13 32C13.5523 32 14 31.5523 14 31C14 30.4477 13.5523 30 13 30C12.4477 30 12 30.4477 12 31C12 31.5523 12.4477 32 13 32ZM16 27C16 27.5523 15.5523 28 15 28C14.4477 28 14 27.5523 14 27C14 26.4477 14.4477 26 15 26C15.5523 26 16 26.4477 16 27ZM17 32C17.5523 32 18 31.5523 18 31C18 30.4477 17.5523 30 17 30C16.4477 30 16 30.4477 16 31C16 31.5523 16.4477 32 17 32ZM20 27C20 27.5523 19.5523 28 19 28C18.4477 28 18 27.5523 18 27C18 26.4477 18.4477 26 19 26C19.5523 26 20 26.4477 20 27ZM21 32C21.5523 32 22 31.5523 22 31C22 30.4477 21.5523 30 21 30C20.4477 30 20 30.4477 20 31C20 31.5523 20.4477 32 21 32ZM26 31C26 31.5523 25.5523 32 25 32C24.4477 32 24 31.5523 24 31C24 30.4477 24.4477 30 25 30C25.5523 30 26 30.4477 26 31ZM23 28C23.5523 28 24 27.5523 24 27C24 26.4477 23.5523 26 23 26C22.4477 26 22 26.4477 22 27C22 27.5523 22.4477 28 23 28ZM28 27C28 27.5523 27.5523 28 27 28C26.4477 28 26 27.5523 26 27C26 26.4477 26.4477 26 27 26C27.5523 26 28 26.4477 28 27Z" fill="#7295F6"/>
<path d="M9.25607 14.3125C9.08936 13.7372 9 13.1291 9 12.5C9 8.91015 11.9101 6 15.5 6C18.4579 6 20.9543 7.97568 21.7416 10.6794C22.4669 9.66282 23.656 9 25 9C27.2091 9 29 10.7909 29 13C29 13.3453 28.9562 13.6804 28.874 14H29C31.7614 14 34 16.2386 34 19C34 21.7614 31.7614 24 29 24H11C8.23858 24 6 21.7614 6 19C6 16.8519 7.35455 15.0203 9.25607 14.3125Z" fill="#DDDDDD"/>
</svg>
