<svg fill="none" viewBox="0 0 40 40" xmlns="http://www.w3.org/2000/svg">
  <path fill="#CCC" fill-rule="evenodd" d="M8 27.667A1.333 1.333 0 1 0 8 25a1.333 1.333 0 0 0 0 2.667ZM12 33a1.333 1.333 0 1 0 0-2.667A1.333 1.333 0 0 0 12 33Zm5.333-6.667a1.333 1.333 0 1 1-2.667 0 1.333 1.333 0 0 1 2.667 0ZM20 33a1.333 1.333 0 1 0 0-2.667A1.333 1.333 0 0 0 20 33Zm5.333-6.667a1.333 1.333 0 1 1-2.667 0 1.333 1.333 0 0 1 2.667 0ZM28 33a1.333 1.333 0 1 0 0-2.667A1.333 1.333 0 0 0 28 33Zm5.333-6.667a1.333 1.333 0 1 1-2.667 0 1.333 1.333 0 0 1 2.667 0Z" clip-rule="evenodd"/>
  <path fill="#F9BE1A" d="M30.586 16.884c.127-.175.414-.1.414.116 0 1.8-.433 3.5-1.2 5H10.2C9.432 20.5 9 18.8 9 17c0-6.066 4.91-10.986 10.974-11h.03c.213.003.286.288.112.414a7.5 7.5 0 1 0 10.47 10.47Z"/>
</svg>
