<svg width="40" height="40" viewBox="0 0 40 40" fill="none" xmlns="http://www.w3.org/2000/svg">
<path d="M21 5.00003C21 4.44775 20.5523 4.00003 20 4.00003C19.4477 4.00003 19 4.44775 19 5.00003V7.00003C19 7.55232 19.4477 8.00003 20 8.00003C20.5523 8.00003 21 7.55232 21 7.00003V5.00003Z" fill="#F9BE1A"/>
<path d="M33 19C33.5523 19 34 18.5523 34 18C34 17.4477 33.5523 17 33 17H31C30.4477 17 30 17.4477 30 18C30 18.5523 30.4477 19 31 19H33Z" fill="#F9BE1A"/>
<path d="M10 18C10 18.5523 9.55228 19 9 19H7C6.44772 19 6 18.5523 6 18C6 17.4477 6.44772 17 7 17H9C9.55228 17 10 17.4477 10 18Z" fill="#F9BE1A"/>
<path d="M27.3658 7.2417C27.642 6.7634 27.4781 6.15181 26.9998 5.87567C26.5215 5.59953 25.9099 5.7634 25.6338 6.2417L24.6338 7.97375C24.3576 8.45204 24.5215 9.06363 24.9998 9.33977C25.4781 9.61592 26.0897 9.45204 26.3658 8.97375L27.3658 7.2417Z" fill="#F9BE1A"/>
<path d="M11.3394 13C11.0632 13.4783 10.4516 13.6422 9.97333 13.366L8.24128 12.366C7.76299 12.0899 7.59911 11.4783 7.87525 11C8.1514 10.5217 8.76299 10.3578 9.24128 10.634L10.9733 11.634C11.4516 11.9101 11.6155 12.5217 11.3394 13Z" fill="#F9BE1A"/>
<path d="M31.7585 12.3661C32.2368 12.09 32.4007 11.4784 32.1245 11.0001C31.8484 10.5218 31.2368 10.3579 30.7585 10.634L29.0264 11.634C28.5481 11.9102 28.3843 12.5218 28.6604 13.0001C28.9366 13.4784 29.5481 13.6422 30.0264 13.3661L31.7585 12.3661Z" fill="#F9BE1A"/>
<path d="M15.0002 9.33977C14.5219 9.61591 13.9103 9.45203 13.6342 8.97374L12.6342 7.24169C12.358 6.7634 12.5219 6.15181 13.0002 5.87567C13.4785 5.59952 14.0901 5.7634 14.3662 6.24169L15.3662 7.97374C15.6424 8.45203 15.4785 9.06362 15.0002 9.33977Z" fill="#F9BE1A"/>
<path d="M29 18C29 18.6874 28.9229 19.3568 28.777 20H11.223C11.0771 19.3568 11 18.6874 11 18C11 13.0294 15.0294 9 20 9C24.9706 9 29 13.0294 29 18Z" fill="#F9BE1A"/>
<path fill-rule="evenodd" clip-rule="evenodd" d="M7.99984 27.6667C8.73622 27.6667 9.33317 27.0697 9.33317 26.3333C9.33317 25.597 8.73622 25 7.99984 25C7.26346 25 6.6665 25.597 6.6665 26.3333C6.6665 27.0697 7.26346 27.6667 7.99984 27.6667ZM11.9998 33C12.7362 33 13.3332 32.403 13.3332 31.6667C13.3332 30.9303 12.7362 30.3333 11.9998 30.3333C11.2635 30.3333 10.6665 30.9303 10.6665 31.6667C10.6665 32.403 11.2635 33 11.9998 33ZM17.3332 26.3333C17.3332 27.0697 16.7362 27.6667 15.9998 27.6667C15.2635 27.6667 14.6665 27.0697 14.6665 26.3333C14.6665 25.597 15.2635 25 15.9998 25C16.7362 25 17.3332 25.597 17.3332 26.3333ZM19.9998 33C20.7362 33 21.3332 32.403 21.3332 31.6667C21.3332 30.9303 20.7362 30.3333 19.9998 30.3333C19.2635 30.3333 18.6665 30.9303 18.6665 31.6667C18.6665 32.403 19.2635 33 19.9998 33ZM25.3332 26.3333C25.3332 27.0697 24.7362 27.6667 23.9998 27.6667C23.2635 27.6667 22.6665 27.0697 22.6665 26.3333C22.6665 25.597 23.2635 25 23.9998 25C24.7362 25 25.3332 25.597 25.3332 26.3333ZM27.9998 33C28.7362 33 29.3332 32.403 29.3332 31.6667C29.3332 30.9303 28.7362 30.3333 27.9998 30.3333C27.2635 30.3333 26.6665 30.9303 26.6665 31.6667C26.6665 32.403 27.2635 33 27.9998 33ZM33.3332 26.3333C33.3332 27.0697 32.7362 27.6667 31.9998 27.6667C31.2635 27.6667 30.6665 27.0697 30.6665 26.3333C30.6665 25.597 31.2635 25 31.9998 25C32.7362 25 33.3332 25.597 33.3332 26.3333Z" fill="#CCCCCC"/>
</svg>
