<svg width="40" height="40" viewBox="0 0 40 40" fill="none" xmlns="http://www.w3.org/2000/svg">
<path d="M12.3509 22.0637C12.868 22.2576 13.13 22.834 12.9361 23.3512L9.93611 31.3512C9.74219 31.8683 9.16578 32.1303 8.64866 31.9364C8.13154 31.7424 7.86953 31.166 8.06345 30.6489L11.0635 22.6489C11.2574 22.1318 11.8338 21.8698 12.3509 22.0637Z" fill="#7295F6"/>
<path d="M16.3509 22.0637C16.868 22.2576 17.13 22.834 16.9361 23.3512L13.9361 31.3512C13.7422 31.8683 13.1658 32.1303 12.6487 31.9364C12.1315 31.7424 11.8695 31.166 12.0635 30.6489L15.0635 22.6489C15.2574 22.1318 15.8338 21.8698 16.3509 22.0637Z" fill="#7295F6"/>
<path d="M20.9361 23.3512C21.13 22.834 20.868 22.2576 20.3509 22.0637C19.8338 21.8698 19.2574 22.1318 19.0635 22.6489L16.0635 30.6489C15.8695 31.166 16.1315 31.7424 16.6487 31.9364C17.1658 32.1303 17.7422 31.8683 17.9361 31.3512L20.9361 23.3512Z" fill="#7295F6"/>
<path d="M24.3509 22.0637C24.868 22.2576 25.13 22.834 24.9361 23.3512L21.9361 31.3512C21.7422 31.8683 21.1658 32.1303 20.6487 31.9364C20.1315 31.7424 19.8695 31.166 20.0635 30.6489L23.0635 22.6489C23.2574 22.1318 23.8338 21.8698 24.3509 22.0637Z" fill="#7295F6"/>
<path d="M28.9361 23.3512C29.13 22.834 28.868 22.2576 28.3509 22.0637C27.8338 21.8698 27.2574 22.1318 27.0635 22.6489L24.0635 30.6489C23.8695 31.166 24.1315 31.7424 24.6487 31.9364C25.1658 32.1303 25.7422 31.8683 25.9361 31.3512L28.9361 23.3512Z" fill="#7295F6"/>
<path fill-rule="evenodd" clip-rule="evenodd" d="M9.25607 14.3125C9.08936 13.7372 9 13.1291 9 12.5C9 8.91015 11.9101 6 15.5 6C18.4579 6 20.9543 7.97568 21.7416 10.6794C22.4669 9.66282 23.656 9 25 9C27.2091 9 29 10.7909 29 13C29 13.3453 28.9562 13.6804 28.874 14H29C31.7614 14 34 16.2386 34 19C34 21.7614 31.7614 24 29 24H11C8.23858 24 6 21.7614 6 19C6 16.8519 7.35455 15.0203 9.25607 14.3125Z" fill="#DDDDDD"/>
</svg>
