<svg width="40" height="40" viewBox="0 0 40 40" fill="none" xmlns="http://www.w3.org/2000/svg">
<path d="M20 6C20.5523 6 21 6.44772 21 7V9C21 9.55228 20.5523 10 20 10C19.4477 10 19 9.55228 19 9V7C19 6.44772 19.4477 6 20 6Z" fill="#F9BE1A"/>
<path d="M20 30C20.5523 30 21 30.4477 21 31V33C21 33.5523 20.5523 34 20 34C19.4477 34 19 33.5523 19 33V31C19 30.4477 19.4477 30 20 30Z" fill="#F9BE1A"/>
<path d="M9 21C9.55228 21 10 20.5523 10 20C10 19.4477 9.55228 19 9 19H7C6.44772 19 6 19.4477 6 20C6 20.5523 6.44772 21 7 21H9Z" fill="#F9BE1A"/>
<path d="M26.9998 7.87561C27.4781 8.15175 27.642 8.76334 27.3658 9.24164L26.3658 10.9737C26.0897 11.452 25.4781 11.6159 24.9998 11.3397C24.5215 11.0636 24.3576 10.452 24.6338 9.97369L25.6338 8.24164C25.9099 7.76334 26.5215 7.59947 26.9998 7.87561Z" fill="#F9BE1A"/>
<path d="M15.3658 30.0263C15.642 29.548 15.4781 28.9364 14.9998 28.6603C14.5215 28.3841 13.9099 28.548 13.6338 29.0263L12.6338 30.7584C12.3576 31.2366 12.5215 31.8482 12.9998 32.1244C13.4781 32.4005 14.0897 32.2366 14.3658 31.7584L15.3658 30.0263Z" fill="#F9BE1A"/>
<path d="M11.3394 15C11.0632 15.4783 10.4516 15.6422 9.97333 15.366L8.24128 14.366C7.76299 14.0899 7.59911 13.4783 7.87525 13C8.1514 12.5217 8.76299 12.3578 9.24128 12.634L10.9733 13.634C11.4516 13.9101 11.6155 14.5217 11.3394 15Z" fill="#F9BE1A"/>
<path d="M10.9733 26.366C11.4516 26.0898 11.6155 25.4782 11.3394 24.9999C11.0632 24.5216 10.4516 24.3578 9.97333 24.6339L8.24128 25.6339C7.76299 25.9101 7.59911 26.5216 7.87525 26.9999C8.1514 27.4782 8.76299 27.6421 9.24128 27.366L10.9733 26.366Z" fill="#F9BE1A"/>
<path d="M14.9997 11.3398C14.5214 11.6159 13.9098 11.452 13.6337 10.9738L12.6337 9.24171C12.3575 8.76341 12.5214 8.15182 12.9997 7.87568C13.478 7.59954 14.0896 7.76341 14.3657 8.24171L15.3657 9.97376C15.6419 10.452 15.478 11.0636 14.9997 11.3398Z" fill="#F9BE1A"/>
<path d="M19.9995 28C24.4178 28 27.9995 24.4182 27.9995 20C27.9995 15.5817 24.4178 12 19.9995 12C15.5812 12 11.9995 15.5817 11.9995 20C11.9995 24.4182 15.5812 28 19.9995 28Z" fill="#F9BE1A"/>
<path d="M32 19C31.5 19 30.5 19 30 19L30 27C30 27.0565 30.0047 27.1119 30.0137 27.1659C28.8414 27.5739 28 28.6887 28 30C28 31.6569 29.3431 33 31 33C32.6569 33 34 31.6569 34 30C34 28.6887 33.1586 27.5739 31.9863 27.1659C31.9953 27.1119 32 27.0565 32 27L32 19Z" fill="#DE5833"/>
<path fill-rule="evenodd" clip-rule="evenodd" d="M31 13C31.5523 13 32 13.4477 32 14V19C31.5 19 30.5 19 30 19V14C30 13.4477 30.4477 13 31 13Z" fill="#E5E5E5"/>
</svg>
