<svg width="40" height="40" viewBox="0 0 40 40" fill="none" xmlns="http://www.w3.org/2000/svg">
<path d="M9.25607 14.3125C9.08936 13.7372 9 13.1291 9 12.5C9 8.91015 11.9101 6 15.5 6C18.4579 6 20.9543 7.97568 21.7416 10.6794C22.4669 9.66282 23.656 9 25 9C27.2091 9 29 10.7909 29 13C29 13.3453 28.9562 13.6804 28.874 14H29C31.7614 14 34 16.2386 34 19C34 21.7614 31.7614 24 29 24H11C8.23858 24 6 21.7614 6 19C6 16.8519 7.35455 15.0203 9.25607 14.3125Z" fill="#DDDDDD"/>
<path d="M22.916 15.8636C23.156 15.539 23.6711 15.7338 23.6362 16.136L23.1002 22.3015C23.0799 22.5352 23.2641 22.7361 23.4987 22.7361L26.7619 22.7361C27.0902 22.7361 27.2787 23.1099 27.0835 23.3739L21.2283 31.2956C20.9884 31.6203 20.4732 31.4254 20.5082 31.0232L21.0443 24.8578C21.0646 24.6241 20.8804 24.4231 20.6458 24.4231H17.3827C17.0543 24.4231 16.8658 24.0494 17.061 23.7854L22.916 15.8636Z" fill="#7295F6"/>
<path d="M14.3864 22.1452C14.5064 21.9829 14.764 22.0803 14.7465 22.2814L14.4012 26.2531C14.3911 26.3699 14.4832 26.4704 14.6005 26.4704L16.7304 26.4704C16.8946 26.4704 16.9889 26.6572 16.8913 26.7893L13.1683 31.8262C13.0483 31.9886 12.7907 31.8911 12.8082 31.69L13.1536 27.7183C13.1638 27.6015 13.0716 27.501 12.9544 27.501H10.8244C10.6602 27.501 10.566 27.3142 10.6635 27.1821L14.3864 22.1452Z" fill="#7295F6"/>
</svg>
