<svg width="40" height="40" viewBox="0 0 40 40" fill="none" xmlns="http://www.w3.org/2000/svg">
<path d="M9.25607 14.3125C9.08936 13.7372 9 13.1291 9 12.5C9 8.91015 11.9101 6 15.5 6C18.4579 6 20.9543 7.97568 21.7416 10.6794C22.4669 9.66282 23.656 9 25 9C27.2091 9 29 10.7909 29 13C29 13.3453 28.9562 13.6804 28.874 14H29C31.7614 14 34 16.2386 34 19C34 21.7614 31.7614 24 29 24H11C8.23858 24 6 21.7614 6 19C6 16.8519 7.35455 15.0203 9.25607 14.3125Z" fill="#DDDDDD"/>
<path fill-rule="evenodd" clip-rule="evenodd" d="M21.8207 16.5606C21.8717 15.974 21.1204 15.6899 20.7705 16.1633L14.1875 25.07C13.9029 25.455 14.1778 26 14.6566 26H18.1898C18.5319 26 18.8006 26.2931 18.771 26.6339L18.1792 33.4394C18.1282 34.026 18.8795 34.3101 19.2294 33.8367L25.8126 24.9301C26.0972 24.545 25.8223 24 25.3435 24L21.8102 24C21.4681 24 21.1995 23.707 21.2291 23.3662L21.8207 16.5606Z" fill="#7295F6"/>
</svg>
